<?xml version="1.0" encoding="utf-8"?>
<!-- Generator: Adobe Illustrator 23.1.0, SVG Export Plug-In . SVG Version: 6.00 Build 0)  -->
<svg version="1.0" id="Layer_1" xmlns="http://www.w3.org/2000/svg" xmlns:xlink="http://www.w3.org/1999/xlink" x="0px" y="0px"
	 viewBox="0 0 913.3 387.1" style="enable-background:new 0 0 913.3 387.1;" xml:space="preserve">
<style type="text/css">
	.st0{fill:#C2A878;}
</style>
<g>
	<path class="st0" d="M38.6,129.2l-20-55.8c-0.9-2.5-1.7-4.5-2.3-6.1c-0.6-1.7-1.1-3-1.6-4.2c-0.4-1.2-0.8-2.1-1.1-2.8
		c-0.3-0.7-0.6-1.4-0.9-2.1c-0.9-2-1.8-3.6-2.8-4.7c-0.9-1.2-1.8-2-2.8-2.5c-1-0.6-2-0.9-3.1-1c-1-0.1-2-0.1-3.1-0.1l-0.6-0.5
		L0,47.3l0.1-0.5c0.6,0,1.4,0,2.5,0.1c1.1,0.1,2.3,0.2,3.6,0.2c1.2,0.1,2.4,0.2,3.6,0.2c1.1,0.1,2,0.1,2.6,0.1h4.2
		c0.6,0,1.5,0,2.8-0.1c1.3-0.1,2.7-0.2,4.1-0.2c1.5-0.1,2.9-0.2,4.2-0.2c1.3-0.1,2.3-0.1,2.8-0.1l0.2,0.5l-0.4,2.2L29.6,50
		c-2.4,0-4.2,0.3-5.5,0.9c-1.3,0.5-2,1.9-2,4.3c0,1.9,0.6,4.5,1.8,8c1.3,3.4,2.9,7.6,4.8,12.8l8.4,22.6c1.6,4.3,2.9,8.1,4.1,11.6
		c1.2,3.4,2.3,6.3,3.3,8.7c0.9-2.4,2-5.2,3.2-8.5c1.3-3.3,2.8-7.2,4.4-11.8l8.4-22.6c1.1-3.2,2.2-6,3.1-8.5c1-2.5,1.8-4.7,2.5-6.6
		c-0.4-1.3-0.9-2.6-1.5-3.8c-0.5-1.2-1.1-2.3-2-3.3c-0.7-1-1.7-1.8-2.9-2.5c-1.2-0.7-2.7-1.1-4.5-1.2l-0.6-0.5l-0.2-2.2l0.1-0.5
		c0.6,0,1.4,0,2.5,0.1c1.1,0.1,2.3,0.2,3.4,0.2c1.2,0.1,2.4,0.2,3.4,0.2c1.1,0.1,2,0.1,2.6,0.1h4.1c0.6,0,1.5,0,2.7-0.1
		c1.2-0.1,2.5-0.2,3.9-0.2c1.4-0.1,2.7-0.2,3.9-0.2c1.2-0.1,2.1-0.1,2.7-0.1l0.2,0.5l-0.4,2.2L82.8,50c-0.9,0-1.9,0.2-2.9,0.5
		c-1,0.2-1.9,0.7-2.8,1.2c-0.8,0.6-1.5,1.3-2.1,2.1c-0.5,0.8-0.7,1.8-0.7,2.8c0,0.8,0.1,1.4,0.2,1.7c0.5,2,1.3,4.5,2.3,7.4
		c1.1,2.9,2.4,6.3,3.8,10.2L89,98.5c1.6,4.2,2.9,8,4.2,11.6c1.2,3.4,2.3,6.4,3.2,8.7c0.9-2.4,2-5.2,3.2-8.5
		c1.3-3.3,2.8-7.2,4.4-11.8l8.4-22.6c1.9-5.2,3.4-9.4,4.7-12.8c1.3-3.4,2-6.1,2-8c0-2.4-0.7-3.8-2-4.3c-1.3-0.6-3.2-0.9-5.5-0.9
		l-0.5-0.5l-0.4-2.2l0.2-0.5c0.6,0,1.5,0,2.7,0.1c1.2,0.1,2.5,0.2,3.8,0.2c1.3,0.1,2.6,0.2,3.8,0.2c1.2,0.1,2.1,0.1,2.7,0.1h2.3
		c0.6,0,1.4,0,2.5-0.1c1.1-0.1,2.3-0.2,3.6-0.2c1.2-0.1,2.4-0.2,3.6-0.2c1.1-0.1,2-0.1,2.6-0.1l0.2,0.5l-0.4,2.2l-0.6,0.5
		c-1.1,0-2.1,0.1-3.1,0.1c-1,0.1-2,0.4-2.9,1c-1,0.5-2,1.3-2.9,2.5c-0.9,1.1-1.8,2.6-2.8,4.7c-0.2,0.7-0.6,1.5-1.1,2.5
		c-0.4,1-1.1,2.8-2.2,5.5c-1.1,2.7-2.6,6.6-4.7,11.7c-2,5-4.6,11.8-8,20.5c-1.1,2.9-2.3,5.9-3.6,9c-1.1,3-2.3,6-3.4,8.7
		c-1.1,2.7-2,5.1-2.8,7.2c-0.8,2.1-1.4,3.6-1.7,4.5l-6.4,1.3h-1.5L69.1,70c-1.1,2.9-2.6,6.5-4.4,11.1c-1.7,4.5-3.9,10.3-6.6,17.3
		c-1.1,2.9-2.2,5.9-3.4,9c-1.2,3-2.4,6-3.6,8.7c-1.1,2.7-2,5.1-2.8,7.2c-0.8,2.1-1.4,3.6-1.7,4.5l-6.4,1.3H38.6z M243.5,128.6
		c-0.6,0-1.5,0-2.8-0.1c-1.3-0.1-2.7-0.2-4.1-0.2c-1.4-0.1-2.7-0.2-4.1-0.2c-1.3-0.1-2.3-0.1-2.8-0.1h-2.3c-0.6,0-1.5,0-2.8,0.1
		c-1.3,0.1-2.7,0.2-4.1,0.2c-1.4,0.1-2.7,0.2-4.1,0.2c-1.3,0.1-2.3,0.1-2.8,0.1l-0.4-0.5l0.4-2.2l0.5-0.5c1.3,0,2.5,0,3.7-0.1
		c1.2-0.2,2.2-0.5,2.8-1.1c0.6-0.6,1.1-1.3,1.6-2.2c0.6-0.9,0.9-2.5,0.9-4.8c0-0.6,0-1.2,0-2c0-0.8,0-1.8-0.1-3c0-1.2,0-2.5-0.1-4.2
		c-0.1-1.7-0.2-3.7-0.4-6.1c-0.7-8.6-1.2-15.5-1.6-20.5c-0.3-5.2-0.6-9.2-0.9-12c-0.2-2.9-0.4-4.9-0.6-6.1c-0.1-1.2-0.2-2.3-0.2-3.1
		c-0.6,1.5-1.5,3.8-2.7,6.9c-1.2,3-2.7,6.5-4.3,10.6c-1.6,3.9-3.2,8.2-5,12.7c-1.8,4.5-3.6,9-5.4,13.4c-1.7,4.4-3.4,8.6-5,12.5
		c-1.6,3.9-2.9,7.3-4.1,10.1h-5.8l-24.6-65.9c-0.1,0.8-0.2,1.7-0.2,2.6c-0.1,0.9-0.2,2-0.2,3.3c-0.1,1.2-0.2,2.7-0.4,4.4
		c-0.1,1.6-0.2,3.7-0.4,6.1l-1.7,22.6c-0.2,2.8-0.4,5.1-0.5,6.9c-0.1,1.8-0.2,3.4-0.2,4.7c-0.1,1.3-0.1,2.4-0.1,3.3
		c0,0.9,0,1.8,0,2.8c0,2.3,0.2,3.9,0.7,4.8c0.6,0.9,1.2,1.6,1.8,2.2c0.7,0.6,1.4,0.9,2.2,1.1c0.9,0.1,2,0.1,3.3,0.1l0.5,0.5l0.4,2.2
		l-0.2,0.5c-0.6,0-1.4,0-2.6-0.1c-1.1-0.1-2.2-0.2-3.3-0.2c-1.1-0.1-2.3-0.2-3.4-0.2c-1.1-0.1-1.9-0.1-2.5-0.1h-2.3
		c-0.6,0-1.5,0-2.8,0.1c-1.2,0.1-2.6,0.2-4.1,0.2c-1.4,0.1-2.7,0.2-4.1,0.2c-1.2,0.1-2.1,0.1-2.7,0.1l-0.2-0.5l0.4-2.2l0.7-0.5
		c1.2,0,2.4,0,3.6-0.1c1.1-0.2,2.1-0.5,2.9-1.1c0.7-0.6,1.3-1.3,2-2.2c0.7-0.9,1.3-2.5,1.6-4.8c0.1-0.6,0.2-1.2,0.2-2
		c0.1-0.8,0.2-1.8,0.2-3c0.2-1.2,0.3-2.5,0.5-4.2c0.2-1.7,0.3-3.7,0.5-6.1l1.7-25c0.2-2.9,0.4-5.3,0.5-7.2c0.2-2,0.2-3.6,0.2-5
		c0.1-1.4,0.1-2.6,0.1-3.6c0.1-1,0.1-2,0.1-3c0-2.3-0.4-3.9-1.1-4.8c-0.7-1-1.3-1.7-2-2.2c-0.7-0.6-1.7-0.9-2.8-1
		c-1.1-0.2-2.4-0.2-3.7-0.2l-0.6-0.5l-0.4-2.2l0.2-0.5c0.6,0,1.5,0,2.8,0.1c1.3,0.1,2.7,0.2,4.1,0.2c1.4,0.1,2.7,0.2,4.1,0.2
		c1.3,0.1,2.3,0.1,2.8,0.1h4.3c0.7,0,1.6,0,2.7-0.1c1.2-0.1,2.2-0.2,2.9-0.4l0.6,0.4c0.1,1.1,0.4,2.5,0.9,4.3c0.6,1.7,1.2,3.7,2,5.9
		c0.8,2.2,1.7,4.6,2.6,7.1c0.9,2.5,1.8,4.9,2.7,7.4l8.4,22.7c1.4,3.9,2.7,7.3,3.8,10.1c1.1,2.7,2.2,5.1,3.1,7.3
		c0.2-0.4,0.9-2,2.1-4.7c1.1-2.8,2.5-6.2,4.2-10.2c1.7-4.1,3.5-8.5,5.4-13.4c1.9-4.8,3.7-9.5,5.4-14.1c1.7-4.7,3.2-9,4.4-12.9
		c1.2-3.9,2-7,2.3-9.3l0.6-0.5c0.7,0.2,1.4,0.3,2.1,0.4c0.7,0.1,1.4,0.1,2.1,0.1h4.4c0.6,0,1.5,0,2.8-0.1c1.3-0.1,2.7-0.2,4.1-0.2
		c1.4-0.1,2.7-0.2,4.1-0.2c1.3-0.1,2.3-0.1,2.8-0.1l0.2,0.5l-0.4,2.2L238,50c-1.3,0-2.6,0.1-3.8,0.2c-1.1,0.1-2,0.4-2.7,1
		c-0.7,0.5-1.4,1.2-2.1,2.2c-0.7,1-1,2.6-1,4.8c0,1.2,0,2.2,0,3.2c0.1,1,0.1,2.1,0.1,3.4c0.1,1.3,0.2,2.9,0.2,4.8
		c0.2,1.9,0.4,4.3,0.6,7.3l1.5,22.6c0.2,2.9,0.4,5.4,0.5,7.2c0.2,1.8,0.3,3.3,0.4,4.5c0.2,1.2,0.3,2.3,0.4,3.2
		c0.2,0.8,0.3,1.7,0.5,2.7c0.3,2.3,0.8,3.9,1.5,4.8c0.7,0.9,1.3,1.6,2,2.2c0.7,0.6,1.7,0.9,2.8,1.1c1.2,0.1,2.5,0.1,3.8,0.1l0.6,0.5
		l0.4,2.2L243.5,128.6z M292.2,58.2c-0.2-2.3-0.6-3.9-1.2-4.8c-0.6-0.9-1.2-1.7-1.8-2.2c-0.7-0.6-1.7-0.9-2.8-1
		c-1.1-0.2-2.4-0.2-3.7-0.2l-0.6-0.5l-0.4-2.2l0.2-0.5c0.6,0,1.5,0,2.8,0.1c1.3,0.1,2.7,0.2,4.1,0.2c1.4,0.1,2.7,0.2,4.1,0.2
		c1.3,0.1,2.3,0.1,2.8,0.1H317c1.1,0,2.7,0,4.8,0c2.2-0.1,4.4-0.2,6.6-0.2c2.2-0.1,4.2-0.1,5.9-0.1c1.8-0.1,2.9-0.1,3.3-0.1l0.6,1.2
		l-0.5,13.4h-3.1l-0.5-0.5c-0.2-1.9-0.4-3.4-0.7-4.4c-0.2-1.1-1.1-1.8-2.5-2.3c-1.3-0.5-3.3-0.8-6-0.9c-2.7-0.1-6.5-0.1-11.4-0.1
		h-11.8l-0.2,4.8c-0.1,1.2-0.2,2.2-0.2,3.2c0,1,0,2.1-0.1,3.4c0,1.3,0,2.9,0,4.8c0,1.9,0,6.3,0,13.3c2.5-0.1,4.9-0.1,7.4-0.1
		c2.5,0,4.7,0,6.6-0.1c2-0.1,3.8-0.2,5.2-0.5c1.4-0.3,2.3-0.8,2.8-1.3c0.7-0.7,1.2-1.3,1.7-2c0.5-0.7,0.7-1.6,0.7-2.8l0.6-0.6
		l2.1-0.2l0.5,0.2c-0.2,1.9-0.3,3.5-0.5,4.9c-0.1,1.4-0.1,3-0.1,4.8c0,2,0,3.8,0.1,5.5c0.2,1.6,0.3,3.4,0.5,5.4l-0.5,0.2l-2.2-0.2
		l-0.5-0.4c0-1.3-0.2-2.5-0.7-3.6c-0.5-1.2-1.1-2.1-1.7-2.8c-0.5-0.5-1.4-0.8-2.8-1.1c-1.4-0.2-3.1-0.4-5-0.5
		c-2-0.1-4.2-0.1-6.6-0.1c-2.5,0-5,0-7.5,0v11.9c0,2.9,0,5.4,0,7.2c0,1.8,0,3.3,0,4.5c0.1,1.2,0.1,2.3,0.1,3.2
		c0.1,0.8,0.2,1.7,0.2,2.7c0.2,2.3,0.6,3.9,1.2,4.8c0.7,0.9,1.4,1.6,2.1,2.2c0.7,0.6,1.8,0.9,3.2,1.1c1.5,0.1,2.9,0.1,4.2,0.1
		l0.6,0.5l0.4,2.2l-0.2,0.5c-0.6,0-1.6,0-3.1-0.1c-1.4-0.1-2.9-0.2-4.4-0.2c-1.6-0.1-3.1-0.2-4.5-0.2c-1.4-0.1-2.4-0.1-2.9-0.1h-2.3
		c-0.6,0-1.5,0-2.8,0.1c-1.3,0.1-2.7,0.2-4.1,0.2c-1.4,0.1-2.7,0.2-4.1,0.2c-1.3,0.1-2.3,0.1-2.8,0.1l-0.2-0.5l0.4-2.2l0.6-0.5
		c1.3,0,2.5,0,3.7-0.1c1.1-0.2,2.1-0.5,2.8-1.1c0.7-0.6,1.3-1.3,1.8-2.2c0.7-0.9,1.1-2.5,1.2-4.8c0-0.6,0-1.2,0-2
		c0.1-0.8,0.1-1.8,0.1-3c0.1-1.2,0.1-2.5,0.1-4.2c0-1.7,0-3.7,0-6.1V77c0-2.9,0-5.3,0-7.2c0-2,0-3.6-0.1-5c0-1.4,0-2.6-0.1-3.6
		C292.2,60.2,292.2,59.2,292.2,58.2z M377,47.3l-0.4,2.2l-0.5,0.5c-1.3,0-2.6,0.1-3.8,0.2c-1.1,0.1-2.1,0.4-2.8,1
		c-0.7,0.6-1.3,1.3-1.8,2.2c-0.6,0.9-0.9,2.5-1.1,4.8c-0.1,1.2-0.2,2.2-0.2,3.2c0,1,0,2.1-0.1,3.4c0,1.3,0,2.9,0,4.8
		c0,1.9,0,4.3,0,7.3v22.6c0,2.9,0,5.4,0,7.2c0,1.8,0,3.3,0,4.5c0.1,1.2,0.1,2.3,0.1,3.2c0.1,0.8,0.2,1.7,0.2,2.7
		c0.2,2.3,0.5,3.9,1.1,4.8c0.6,0.9,1.2,1.6,1.8,2.2c0.7,0.6,1.7,0.9,2.8,1.1c1.2,0.1,2.5,0.1,3.8,0.1l0.5,0.5l0.4,2.2l-0.2,0.5
		c-0.6,0-1.5,0-2.8-0.1c-1.3-0.1-2.7-0.2-4.1-0.2c-1.4-0.1-2.7-0.2-4.1-0.2c-1.3-0.1-2.3-0.1-2.8-0.1h-2.3c-0.6,0-1.5,0-2.8,0.1
		c-1.3,0.1-2.7,0.2-4.1,0.2c-1.4,0.1-2.7,0.2-4.1,0.2c-1.3,0.1-2.3,0.1-2.8,0.1l-0.2-0.5l0.4-2.2l0.6-0.5c1.3,0,2.5,0,3.7-0.1
		c1.1-0.2,2.1-0.5,2.8-1.1c0.7-0.6,1.3-1.3,1.8-2.2c0.7-0.9,1.1-2.5,1.2-4.8c0-0.6,0-1.2,0-2c0.1-0.8,0.1-1.8,0.1-3
		c0.1-1.2,0.1-2.5,0.1-4.2c0-1.7,0-3.7,0-6.1V77c0-2.9,0-5.3,0-7.2c0-2,0-3.6-0.1-5c0-1.4,0-2.6-0.1-3.6c0-1,0-2-0.1-3
		c-0.2-2.1-0.5-3.7-1.1-4.7c-0.6-1-1.2-1.8-1.8-2.3c-0.7-0.6-1.7-0.9-2.8-1c-1.1-0.2-2.4-0.2-3.7-0.2l-0.6-0.5l-0.4-2.2l0.2-0.5
		c0.6,0,1.5,0,2.8,0.1c1.3,0.1,2.7,0.2,4.1,0.2c1.4,0.1,2.7,0.2,4.1,0.2c1.3,0.1,2.3,0.1,2.8,0.1h2.3c0.6,0,1.5,0,2.8-0.1
		c1.3-0.1,2.7-0.2,4.1-0.2c1.4-0.1,2.7-0.2,4.1-0.2c1.3-0.1,2.3-0.1,2.8-0.1L377,47.3z M469.3,47.3l-0.2,2.2l-0.6,0.5
		c-1.3,0-2.6,0.1-3.8,0.2c-1.1,0.1-2,0.4-2.7,1c-0.7,0.6-1.3,1.3-1.8,2.2c-0.5,0.9-0.8,2.5-1,4.8c-0.1,1.2-0.2,2.2-0.2,3.2
		c0,1,0,2.1-0.1,3.4c0,1.3,0,2.9,0,4.8c0,1.9,0,4.3,0,7.3v21.6c0,4.6,0,8.4,0,11.3c0.1,3,0.1,5.5,0.1,7.6c0.1,2.1,0.2,3.9,0.2,5.5
		c0.2,1.6,0.3,3.4,0.5,5.4l-1,0.6l-7.6-0.5l-1.2-1.5L406,61.6c0,0.8,0,1.6-0.1,2.5c0,0.8,0,1.8,0,3.1c0,1.2,0,2.5,0,4.1
		c0,1.6,0,3.5,0,5.8v22.6c0,1,0,2.3,0,3.9c0,1.6,0,3.2,0,4.9c0.1,1.7,0.1,3.4,0.1,5c0.1,1.6,0.2,2.8,0.2,3.8c0.2,2.1,0.5,3.6,1,4.7
		c0.6,1,1.3,1.8,2.1,2.3c0.7,0.5,1.5,0.8,2.6,1c1.1,0.2,2.4,0.2,4.1,0.2l0.6,0.5l0.4,2.2l-0.2,0.5c-0.6,0-1.5,0-2.7-0.1
		c-1.1-0.1-2.4-0.2-3.7-0.2c-1.3-0.1-2.6-0.2-3.8-0.2c-1.1-0.1-2-0.1-2.6-0.1h-2.3c-0.6,0-1.5,0-2.8,0.1c-1.3,0.1-2.7,0.2-4.1,0.2
		c-1.4,0.1-2.7,0.2-4.1,0.2c-1.3,0.1-2.3,0.1-2.8,0.1l-0.2-0.5l0.4-2.2l0.6-0.5c1.5,0,2.7,0,3.7-0.1c1.1-0.2,2-0.5,2.8-1.1
		c0.6-0.4,1.1-1.1,1.7-2c0.7-1,1.1-2.7,1.4-5c0.1-0.6,0.1-1.2,0.1-2c0.1-0.8,0.1-1.8,0.1-3c0-1.2,0-2.5,0-4.2c0-1.7,0-3.7,0-6.1V77
		c0-2.9,0-5.3,0-7.2c0-2,0-3.6,0-5c0-1.4,0-2.6-0.1-3.6c0-1,0-2-0.1-3c-0.2-1.7-0.5-3.1-1.1-4.3c-0.6-1.2-1.2-2.1-2-2.7
		c-0.7-0.6-1.7-0.9-2.8-1c-1.1-0.2-2.3-0.2-3.7-0.2l-0.6-0.5l-0.4-2.2l0.2-0.5c0.6,0,1.4,0,2.5,0.1c1.1,0.1,2.3,0.2,3.4,0.2
		c1.1,0.1,2.3,0.2,3.3,0.2c1.1,0.1,2,0.1,2.6,0.1h4.3c0.7,0,1.6,0,2.7-0.1c1.2-0.1,2.2-0.2,2.9-0.4l0.6,0.4c0.3,1.2,1,2.7,2,4.8
		c1.1,2,2.3,4.2,3.7,6.6c1.5,2.5,3,5.1,4.7,7.9c1.7,2.8,3.4,5.5,5.2,8.2c6.2,10,11.6,18.1,16.2,24.4c4.7,6.3,7.7,10.4,9,12.3
		c0-0.6,0-1.1,0-1.6c0.1-0.5,0.1-1.1,0.1-1.7c0-0.7,0-1.5,0-2.5c0-1,0-2.3,0-3.9V77c0-2.9,0-5.3,0-7.2c0-2,0-3.6-0.1-5
		c0-1.4,0-2.6-0.1-3.6c0-1,0-2-0.1-3c-0.2-2.3-0.5-3.9-1.1-4.8c-0.6-0.9-1.2-1.7-1.8-2.2c-0.7-0.6-1.7-0.9-2.9-1
		c-1.1-0.2-2.4-0.2-3.7-0.2l-0.5-0.5l-0.4-2.2l0.2-0.5c0.6,0,1.4,0,2.5,0.1c1.1,0.1,2.1,0.2,3.2,0.2c1.1,0.1,2.3,0.2,3.3,0.2
		c1.1,0.1,1.9,0.1,2.5,0.1h5.8c0.6,0,1.4,0,2.5,0c1.1-0.1,2.2-0.2,3.3-0.2c1.1-0.1,2.3-0.2,3.3-0.2c1.1-0.1,1.9-0.2,2.5-0.2
		L469.3,47.3z M519.7,46.2l20.2,55.8c0.8,2.5,1.5,4.5,2.1,6.1c0.7,1.6,1.2,3,1.6,4.2c0.5,1.2,0.9,2.1,1.2,3c0.3,0.7,0.6,1.4,0.9,2
		c0.9,2.1,1.8,3.6,2.7,4.8c1,1.1,2,1.9,2.9,2.5c1,0.5,2,0.8,2.9,0.9c1.1,0.1,2.1,0.1,3.2,0.1l0.6,0.5l0.4,2.2l-0.2,0.5
		c-0.6,0-1.4,0-2.6-0.1c-1.1-0.1-2.3-0.2-3.6-0.2c-1.2-0.1-2.4-0.2-3.6-0.2c-1.1-0.1-1.9-0.1-2.5-0.1h-4.1c-0.6,0-1.5,0-2.8,0.1
		c-1.3,0.1-2.7,0.2-4.2,0.2c-1.4,0.1-2.7,0.2-4.1,0.2c-1.3,0.1-2.3,0.1-2.8,0.1l-0.2-0.5l0.4-2.2l0.5-0.5c2.4,0,4.2-0.2,5.5-0.7
		c1.3-0.6,2-2.1,2-4.4c0-1.9-0.7-4.5-2-7.9c-1.2-3.5-2.8-7.8-4.7-12.9l-2.1-5.9h-27.5l-2.1,5.9c-1.9,5.1-3.5,9.4-4.8,12.9
		c-1.2,3.4-1.8,6-1.8,7.9c0,2.4,0.7,3.9,2,4.4c1.3,0.5,3.2,0.7,5.5,0.7l0.6,0.5l0.4,2.2l-0.2,0.5c-0.6,0-1.5,0-2.7-0.1
		c-1.2-0.1-2.5-0.2-3.9-0.2c-1.3-0.1-2.6-0.2-3.8-0.2c-1.2-0.1-2.1-0.1-2.7-0.1h-2.3c-0.6,0-1.4,0-2.6,0.1c-1.1,0.1-2.3,0.2-3.6,0.2
		c-1.2,0.1-2.4,0.2-3.6,0.2c-1.1,0.1-1.9,0.1-2.5,0.1l-0.1-0.5l0.2-2.2l0.6-0.5c1.1,0,2.1,0,3.1-0.1c1-0.1,2-0.4,2.9-0.9
		c1-0.6,1.9-1.4,2.8-2.5c1-1.2,2-2.7,2.9-4.8c0.2-0.4,0.5-0.9,0.6-1.3c0.2-0.6,0.6-1.4,1-2.5c0.5-1.1,1.1-2.5,1.7-4.2
		c0.7-1.8,1.6-4.1,2.7-6.9c1.1-2.9,2.5-6.4,4.1-10.4c1.6-4.1,3.6-9.1,5.9-14.9c1.1-2.9,2.2-5.7,3.3-8.5c1.1-2.9,2.2-5.5,3.2-8
		c1-2.5,1.8-4.6,2.6-6.5c0.8-1.9,1.4-3.3,1.7-4.2l7.2-3.7H519.7z M502,88.3h23.5l-11.7-31.6L502,88.3z M643.9,47.3l-0.2,2.2L643,50
		c-1.3,0-2.6,0.1-3.8,0.2c-1.1,0.1-2,0.4-2.7,1c-0.7,0.6-1.3,1.3-1.8,2.2c-0.5,0.9-0.8,2.5-1,4.8c-0.1,1.2-0.2,2.2-0.2,3.2
		c0,1,0,2.1-0.1,3.4c0,1.3,0,2.9,0,4.8c0,1.9,0,4.3,0,7.3v21.6c0,4.6,0,8.4,0,11.3c0.1,3,0.1,5.5,0.1,7.6c0.1,2.1,0.2,3.9,0.2,5.5
		c0.2,1.6,0.3,3.4,0.5,5.4l-1,0.6l-7.6-0.5l-1.2-1.5l-43.7-65.5c0,0.8,0,1.6-0.1,2.5c0,0.8,0,1.8,0,3.1c0,1.2,0,2.5,0,4.1
		c0,1.6,0,3.5,0,5.8v22.6c0,1,0,2.3,0,3.9c0,1.6,0,3.2,0,4.9c0.1,1.7,0.1,3.4,0.1,5c0.1,1.6,0.2,2.8,0.2,3.8c0.2,2.1,0.5,3.6,1,4.7
		c0.6,1,1.3,1.8,2.1,2.3c0.7,0.5,1.5,0.8,2.6,1c1.1,0.2,2.4,0.2,4.1,0.2l0.6,0.5l0.4,2.2l-0.2,0.5c-0.6,0-1.5,0-2.7-0.1
		c-1.1-0.1-2.4-0.2-3.7-0.2c-1.3-0.1-2.6-0.2-3.8-0.2c-1.1-0.1-2-0.1-2.6-0.1h-2.3c-0.6,0-1.5,0-2.8,0.1c-1.3,0.1-2.7,0.2-4.1,0.2
		c-1.4,0.1-2.7,0.2-4.1,0.2c-1.3,0.1-2.3,0.1-2.8,0.1l-0.2-0.5l0.4-2.2l0.6-0.5c1.5,0,2.7,0,3.7-0.1c1.1-0.2,2-0.5,2.8-1.1
		c0.6-0.4,1.1-1.1,1.7-2c0.7-1,1.1-2.7,1.4-5c0.1-0.6,0.1-1.2,0.1-2c0.1-0.8,0.1-1.8,0.1-3c0-1.2,0-2.5,0-4.2c0-1.7,0-3.7,0-6.1V77
		c0-2.9,0-5.3,0-7.2c0-2,0-3.6,0-5c0-1.4,0-2.6-0.1-3.6c0-1,0-2-0.1-3c-0.2-1.7-0.5-3.1-1.1-4.3c-0.6-1.2-1.2-2.1-2-2.7
		c-0.7-0.6-1.7-0.9-2.8-1c-1.1-0.2-2.3-0.2-3.7-0.2l-0.6-0.5l-0.4-2.2l0.2-0.5c0.6,0,1.4,0,2.5,0.1c1.1,0.1,2.3,0.2,3.4,0.2
		c1.1,0.1,2.3,0.2,3.3,0.2c1.1,0.1,2,0.1,2.6,0.1h4.3c0.7,0,1.6,0,2.7-0.1c1.2-0.1,2.2-0.2,2.9-0.4l0.6,0.4c0.3,1.2,1,2.7,2,4.8
		c1.1,2,2.3,4.2,3.7,6.6c1.5,2.5,3,5.1,4.7,7.9c1.7,2.8,3.4,5.5,5.2,8.2c6.2,10,11.6,18.1,16.2,24.4c4.7,6.3,7.7,10.4,9,12.3
		c0-0.6,0-1.1,0-1.6c0.1-0.5,0.1-1.1,0.1-1.7c0-0.7,0-1.5,0-2.5c0-1,0-2.3,0-3.9V77c0-2.9,0-5.3,0-7.2c0-2,0-3.6-0.1-5
		c0-1.4,0-2.6-0.1-3.6c0-1,0-2-0.1-3c-0.2-2.3-0.5-3.9-1.1-4.8c-0.6-0.9-1.2-1.7-1.8-2.2c-0.7-0.6-1.7-0.9-2.9-1
		c-1.1-0.2-2.4-0.2-3.7-0.2l-0.5-0.5l-0.4-2.2l0.2-0.5c0.6,0,1.4,0,2.5,0.1c1.1,0.1,2.1,0.2,3.2,0.2c1.1,0.1,2.3,0.2,3.3,0.2
		c1.1,0.1,1.9,0.1,2.5,0.1h5.8c0.6,0,1.4,0,2.5,0c1.1-0.1,2.2-0.2,3.3-0.2c1.1-0.1,2.3-0.2,3.3-0.2c1.1-0.1,1.9-0.2,2.5-0.2
		L643.9,47.3z M715.5,62.2c-0.2-1.8-1-3.3-2.3-4.5c-1.3-1.2-2.9-2.2-4.9-2.9c-1.9-0.7-4-1.2-6.4-1.5c-2.3-0.3-4.6-0.5-6.9-0.5
		c-8.1,0-14.5,1.8-19.2,5.5c-3.9,3.1-6.8,7.3-8.7,12.4c-1.9,5.1-2.8,10.8-2.8,17c0,5.8,0.8,10.9,2.5,15.4c1.7,4.3,4.1,8,7,10.9
		c2.9,3,6.4,5.2,10.4,6.8c4.1,1.5,8.5,2.2,13.3,2.2c3.4,0,7.2-0.5,11.5-1.4c4.4-1,8.6-2.8,12.5-5.5l1.2,1.4l-2.7,5.5
		c-4.1,2.2-8.2,3.8-12.3,4.9c-4,1-8.2,1.5-12.5,1.5c-6.1,0-11.7-1-16.7-2.9c-5-2-9.3-4.8-12.9-8.4c-3.5-3.7-6.3-8-8.2-13
		c-2-5.1-2.9-10.7-2.9-16.8c0-5.7,0.9-11.1,2.6-16.2c1.8-5.2,4.4-9.6,7.9-13.4c3.5-3.8,7.8-6.8,12.9-9c5.2-2.2,11.1-3.3,17.9-3.3
		c1.5,0,3.2,0.1,5.2,0.2c2,0.1,4.2,0.3,6.4,0.6c2.2,0.3,4.5,0.8,6.8,1.3c2.3,0.5,4.5,1.2,6.6,2l0.4,1.1l-1.6,11.2h-3.6L715.5,62.2z
		 M763.4,47.3l-0.4,2.2l-0.5,0.5c-1.3,0-2.6,0.1-3.8,0.2c-1.1,0.1-2.1,0.4-2.8,1c-0.7,0.6-1.3,1.3-1.8,2.2c-0.6,0.9-0.9,2.5-1.1,4.8
		c-0.1,1.2-0.2,2.2-0.2,3.2c0,1,0,2.1-0.1,3.4c0,1.3,0,2.9,0,4.8c0,1.9,0,4.3,0,7.3v22.6c0,2.9,0,5.4,0,7.2c0,1.8,0,3.3,0,4.5
		c0.1,1.2,0.1,2.3,0.1,3.2c0.1,0.8,0.2,1.7,0.2,2.7c0.2,2.3,0.5,3.9,1.1,4.8c0.6,0.9,1.2,1.6,1.8,2.2c0.7,0.6,1.7,0.9,2.8,1.1
		c1.2,0.1,2.5,0.1,3.8,0.1l0.5,0.5l0.4,2.2l-0.2,0.5c-0.6,0-1.5,0-2.8-0.1c-1.3-0.1-2.7-0.2-4.1-0.2c-1.4-0.1-2.7-0.2-4.1-0.2
		c-1.3-0.1-2.3-0.1-2.8-0.1h-2.3c-0.6,0-1.5,0-2.8,0.1c-1.3,0.1-2.7,0.2-4.1,0.2c-1.4,0.1-2.7,0.2-4.1,0.2c-1.3,0.1-2.3,0.1-2.8,0.1
		l-0.2-0.5l0.4-2.2l0.6-0.5c1.3,0,2.5,0,3.7-0.1c1.1-0.2,2.1-0.5,2.8-1.1c0.7-0.6,1.3-1.3,1.8-2.2c0.7-0.9,1.1-2.5,1.2-4.8
		c0-0.6,0-1.2,0-2c0.1-0.8,0.1-1.8,0.1-3c0.1-1.2,0.1-2.5,0.1-4.2c0-1.7,0-3.7,0-6.1V77c0-2.9,0-5.3,0-7.2c0-2,0-3.6-0.1-5
		c0-1.4,0-2.6-0.1-3.6c0-1,0-2-0.1-3c-0.2-2.1-0.5-3.7-1.1-4.7c-0.6-1-1.2-1.8-1.8-2.3c-0.7-0.6-1.7-0.9-2.8-1
		c-1.1-0.2-2.4-0.2-3.7-0.2l-0.6-0.5l-0.4-2.2l0.2-0.5c0.6,0,1.5,0,2.8,0.1c1.3,0.1,2.7,0.2,4.1,0.2c1.4,0.1,2.7,0.2,4.1,0.2
		c1.3,0.1,2.3,0.1,2.8,0.1h2.3c0.6,0,1.5,0,2.8-0.1c1.3-0.1,2.7-0.2,4.1-0.2c1.4-0.1,2.7-0.2,4.1-0.2c1.3-0.1,2.3-0.1,2.8-0.1
		L763.4,47.3z M814.4,46.2l20.2,55.8c0.8,2.5,1.5,4.5,2.1,6.1c0.7,1.6,1.2,3,1.6,4.2c0.5,1.2,0.9,2.1,1.2,3c0.3,0.7,0.6,1.4,0.9,2
		c0.9,2.1,1.8,3.6,2.7,4.8c1,1.1,2,1.9,2.9,2.5c1,0.5,2,0.8,2.9,0.9c1.1,0.1,2.1,0.1,3.2,0.1l0.6,0.5l0.4,2.2l-0.2,0.5
		c-0.6,0-1.4,0-2.6-0.1c-1.1-0.1-2.3-0.2-3.6-0.2c-1.2-0.1-2.4-0.2-3.6-0.2c-1.1-0.1-1.9-0.1-2.5-0.1h-4.1c-0.6,0-1.5,0-2.8,0.1
		c-1.3,0.1-2.7,0.2-4.2,0.2c-1.4,0.1-2.7,0.2-4.1,0.2c-1.3,0.1-2.3,0.1-2.8,0.1l-0.2-0.5l0.4-2.2l0.5-0.5c2.4,0,4.2-0.2,5.5-0.7
		c1.3-0.6,2-2.1,2-4.4c0-1.9-0.7-4.5-2-7.9c-1.2-3.5-2.8-7.8-4.7-12.9l-2.1-5.9h-27.5l-2.1,5.9c-1.9,5.1-3.5,9.4-4.8,12.9
		c-1.2,3.4-1.8,6-1.8,7.9c0,2.4,0.7,3.9,2,4.4c1.3,0.5,3.2,0.7,5.5,0.7l0.6,0.5l0.4,2.2l-0.2,0.5c-0.6,0-1.5,0-2.7-0.1
		c-1.2-0.1-2.5-0.2-3.9-0.2c-1.3-0.1-2.6-0.2-3.8-0.2c-1.2-0.1-2.1-0.1-2.7-0.1h-2.3c-0.6,0-1.4,0-2.6,0.1c-1.1,0.1-2.3,0.2-3.6,0.2
		c-1.2,0.1-2.4,0.2-3.6,0.2c-1.1,0.1-1.9,0.1-2.5,0.1l-0.1-0.5l0.2-2.2l0.6-0.5c1.1,0,2.1,0,3.1-0.1c1-0.1,2-0.4,2.9-0.9
		c1-0.6,1.9-1.4,2.8-2.5c1-1.2,2-2.7,2.9-4.8c0.2-0.4,0.5-0.9,0.6-1.3c0.2-0.6,0.6-1.4,1-2.5c0.5-1.1,1.1-2.5,1.7-4.2
		c0.7-1.8,1.6-4.1,2.7-6.9c1.1-2.9,2.5-6.4,4.1-10.4c1.6-4.1,3.6-9.1,5.9-14.9c1.1-2.9,2.2-5.7,3.3-8.5c1.1-2.9,2.2-5.5,3.2-8
		c1-2.5,1.8-4.6,2.6-6.5c0.8-1.9,1.4-3.3,1.7-4.2l7.2-3.7H814.4z M796.7,88.3h23.5l-11.7-31.6L796.7,88.3z M867.3,58.2
		c-0.2-2.3-0.5-3.9-1.1-4.8c-0.6-0.9-1.2-1.7-1.8-2.2c-0.7-0.6-1.7-0.9-2.8-1c-1.1-0.2-2.4-0.2-3.7-0.2l-0.6-0.5l-0.4-2.2l0.2-0.5
		c0.6,0,1.5,0,2.8,0.1c1.3,0.1,2.7,0.2,4.1,0.2c1.4,0.1,2.7,0.2,4.1,0.2c1.3,0.1,2.3,0.1,2.8,0.1h2.3c0.6,0,1.5,0,2.8-0.1
		c1.3-0.1,2.7-0.2,4.1-0.2c1.4-0.1,2.7-0.2,4.1-0.2c1.3-0.1,2.3-0.1,2.8-0.1l0.2,0.5l-0.4,2.2l-0.5,0.5c-1.3,0-2.6,0.1-3.8,0.2
		c-1.1,0.1-2.1,0.4-2.8,1c-0.7,0.6-1.3,1.4-2,2.3c-0.6,0.9-0.9,2.5-1.1,4.7c-0.1,1.2-0.2,2.2-0.2,3.2c0,1,0,2.1,0,3.4
		c0,1.3,0,2.9,0,4.8c0,1.9,0,4.3,0,7.3v22.6c0,2.9,0,5.2,0,7.1c0,1.9,0,3.5,0,4.9c0.1,1.4,0.2,2.7,0.2,3.9c0.1,1.2,0.2,2.6,0.2,4.2
		c0.1,1.6,0.9,2.3,2.6,2.3h10.4c4.9,0,8.6-0.1,11.1-0.2c2.5-0.2,4.3-0.7,5.4-1.3c1.1-0.7,1.8-1.7,2.1-3c0.2-1.4,0.7-3.2,1.2-5.4
		l0.4-0.5h3.2l-2.2,15.6l-1,1.2c-0.4,0-1.2-0.1-2.3-0.1c-1.1,0-2.3,0-3.8-0.1c-1.4-0.1-2.9-0.2-4.4-0.2c-1.5,0-2.7,0-3.8,0h-24.8
		c-0.6,0-1.5,0-2.8,0.1c-1.3,0.1-2.7,0.2-4.1,0.2c-1.4,0.1-2.7,0.2-4.1,0.2c-1.3,0.1-2.3,0.1-2.8,0.1l-0.2-0.5l0.4-2.2l0.6-0.5
		c1.3,0,2.5,0,3.7-0.1c1.1-0.2,2.1-0.5,2.8-1.1c0.7-0.6,1.3-1.4,1.8-2.5c0.6-1.1,1-2.6,1.2-4.5c0.1-0.6,0.1-1.2,0.1-2
		c0.1-0.8,0.1-1.8,0.1-3c0-1.2,0-2.5,0-4.2c0-1.7,0-3.7,0-6.1V77c0-2.9,0-5.3,0-7.2c0-2,0-3.6-0.1-5c0-1.4,0-2.6-0.1-3.6
		C867.4,60.2,867.4,59.2,867.3,58.2z M324.1,261.1c-3.9,1.2-8.1,2.2-12.4,3.1c-4.3,0.9-8.7,1.3-13.4,1.3c-7.1,0-13.4-1.1-18.7-3.2
		c-5.2-2.2-9.6-5.2-13.1-9c-3.4-3.8-6-8.2-7.7-13.2c-1.7-5-2.6-10.3-2.6-15.9c0-5.9,0.9-11.4,2.7-16.5c1.9-5.1,4.6-9.5,8.2-13.3
		c3.6-3.8,8.1-6.7,13.4-8.9c5.3-2.2,11.5-3.3,18.6-3.3c1.5,0,3.2,0.1,5.3,0.2c2.1,0.1,4.3,0.3,6.6,0.6c2.3,0.3,4.6,0.8,7,1.3
		c2.4,0.5,4.6,1.2,6.8,2l0.2,1.1l-2.1,11.9h-3.4l-0.5-0.4c-0.6-3.3-2.5-5.8-5.8-7.6c-3.2-1.8-8.1-2.7-14.7-2.7
		c-9.3,0-16.3,1.9-21.1,5.8c-2,1.6-3.6,3.4-5,5.5c-1.4,2.1-2.6,4.5-3.6,7c-0.9,2.5-1.6,5.2-2.1,8.1c-0.4,2.8-0.6,5.6-0.6,8.4
		c0,5.5,0.8,10.4,2.3,14.7c1.6,4.4,3.8,8,6.6,11.1c2.8,3,6.1,5.2,10,6.9c3.8,1.6,8,2.3,12.5,2.3c1.4,0,2.9,0,4.7-0.1
		c1.8-0.2,3.5-0.4,5.2-0.6c1.7-0.2,3.2-0.5,4.5-0.9c1.3-0.3,2.2-0.7,2.7-1c0.7-0.4,1-1.3,1-2.6c0-0.6,0-1.4,0-2.3c0-1,0-2,0-3.1
		c0-1.2,0-2.2-0.1-3.3c0-1.2,0-2.1-0.1-2.9c-0.2-2.1-0.6-3.7-1.4-4.8c-0.7-1.2-1.2-1.9-1.7-2.2c-0.7-0.6-1.8-0.9-3.3-1
		c-1.5-0.2-2.9-0.2-4.2-0.2l-0.6-0.5l-0.4-2.7l0.2-0.5c0.6,0,1.5,0,2.7,0.1c1.3,0.1,2.6,0.2,3.9,0.2c1.4,0.1,2.7,0.2,3.9,0.2
		c1.3,0.1,2.3,0.1,2.8,0.1h3.7c0.6,0,1.4,0,2.3-0.1c1-0.1,2-0.2,3.1-0.2c1.1-0.1,2.1-0.2,3.1-0.2c1-0.1,1.8-0.1,2.3-0.1l0.2,0.5
		l-0.2,3l-0.6,0.5c-2.4,0-4.1,0.7-5,2.1c-0.9,1.3-1.4,3.3-1.6,5.9c-0.2,2-0.3,4.2-0.4,6.6c0,2.3,0,4,0,5.2c0,1.2,0,2.6,0,4.1
		c0.1,1.4,0.2,2.3,0.4,2.7L324.1,261.1z M371.9,264.9c-0.6,0-1.5,0-2.8-0.1c-1.3-0.1-2.7-0.2-4.1-0.2c-1.4-0.1-2.7-0.2-4.1-0.2
		c-1.3-0.1-2.3-0.1-2.8-0.1h-2.3c-0.6,0-1.5,0-2.8,0.1c-1.3,0.1-2.7,0.2-4.1,0.2c-1.4,0.1-2.7,0.2-4.1,0.2c-1.3,0.1-2.3,0.1-2.8,0.1
		l-0.2-0.5l0.4-2.2l0.6-0.5c1,0,2.1,0,3.4-0.1c1.3-0.2,2.3-0.5,3.1-1c0.7-0.5,1.3-1.3,1.8-2.3c0.6-1.1,1-2.7,1.2-4.8
		c0-0.6,0-1.2,0-2c0.1-0.8,0.1-1.8,0.1-3c0.1-1.2,0.1-2.5,0.1-4.2c0-1.7,0-3.7,0-6.1v-31.9c0-1.7,0-3.5-0.1-5.5
		c0-2.1-0.1-4.2-0.2-6.3c-0.2-1.9-0.5-3.4-1.1-4.4c-0.6-1.2-1.2-2-1.8-2.6c-0.7-0.4-1.5-0.7-2.3-0.8c-0.7-0.2-2.1-0.4-4.2-0.4
		l-0.6-0.5l-0.4-2.2l0.2-0.5c0.6,0,1.3,0,2.2,0.1c1,0.1,2,0.2,2.9,0.2c1.1,0.1,2.1,0.2,3.2,0.2c1.1,0.1,2,0.1,2.9,0.1h4.4
		c0.9,0,1.9,0,3.1,0c1.1,0,2.3,0,3.4,0c1.2-0.1,2.3-0.1,3.3-0.1c1,0,1.8,0,2.5,0c5.5,0,10.1,0.5,13.9,1.6c3.9,1.1,7,2.5,9.3,4.4
		c2.4,1.8,4.1,4,5.2,6.6c1.1,2.5,1.7,5.3,1.7,8.2c0,3.5-0.7,6.6-2,9.2c-1.2,2.5-2.8,4.7-4.8,6.6c-2,1.8-4.2,3.3-6.6,4.4
		c-2.5,1.1-4.9,1.9-7.2,2.5c2.6,3.7,5.3,7.3,8.1,10.9c2.8,3.6,5.7,7.1,8.6,10.6c1.6,1.9,3.2,3.6,4.5,5c1.4,1.5,2.9,2.7,4.4,3.8
		c1.6,1.1,3.4,1.9,5.4,2.6c2,0.7,4.3,1.2,7.1,1.5l0.7,0.5l0.2,2.2l-0.2,0.5c-1.8,0.1-3.8,0.2-6.1,0.2c-2.3,0.2-4.1,0.2-5.4,0.2
		c-2.1,0-4-0.2-5.5-0.7c-1.6-0.5-3.1-1.3-4.5-2.3c-1.5-1.1-3-2.5-4.5-4.2c-1.5-1.7-3.2-3.8-5.2-6.1c-0.2-0.2-1-1.2-2.2-2.8
		c-1.1-1.7-2.6-3.7-4.3-6c-1.6-2.4-3.4-4.9-5.3-7.5c-1.8-2.7-3.5-5.2-5-7.5h-9c0,2.2,0,4.6,0,7.2c0,2.6,0,5.1,0,7.5
		c0.1,2.4,0.1,4.5,0.1,6.5c0.1,1.9,0.2,3.2,0.2,4.1c0.2,2.4,0.6,4.1,1.2,5c0.7,0.9,1.2,1.6,1.7,2c0.7,0.4,1.5,0.7,2.2,1
		c0.8,0.2,2.3,0.2,4.4,0.2l0.5,0.5l0.4,2.2L371.9,264.9z M372.5,222.8c6.8,0,11.7-1.6,14.6-4.7c3-3.2,4.5-7.4,4.5-12.8
		c0-5-1.7-8.8-5.2-11.5c-3.4-2.7-8-4.1-13.9-4.1h-10.7c-0.2,2.4-0.3,4.4-0.4,6c0,1.7,0,3.1-0.1,4.3c-0.1,1.2-0.1,2.3-0.1,3.3
		c0,1,0,1.9,0,2.8v12c0,1.1,0,1.9,0.1,2.6c0.1,0.6,0.3,1,0.6,1.3c0.3,0.2,0.8,0.4,1.4,0.5c0.7,0.1,1.5,0.1,2.6,0.1H372.5z
		 M461,182.5c6.4,0,12.1,1.1,17.1,3.3c5,2.2,9.2,5.2,12.5,9.1c3.4,3.8,6.1,8.2,7.9,13.2c1.8,5,2.7,10.3,2.7,15.7
		c0,5.4-0.9,10.7-2.7,15.7c-1.7,5-4.3,9.4-7.7,13.3c-3.4,3.8-7.7,6.9-12.9,9.3c-5.1,2.3-11,3.4-17.7,3.4c-6.6,0-12.3-1.1-17.2-3.3
		c-4.8-2.2-8.9-5.2-12.3-8.9c-3.3-3.8-5.7-8.1-7.4-13c-1.6-5-2.5-10.2-2.5-15.7c0-5.8,0.9-11.3,2.7-16.3c1.8-5.2,4.4-9.6,7.9-13.4
		c3.4-3.8,7.7-6.9,12.7-9.1C449.1,183.6,454.7,182.5,461,182.5z M460.9,259c4.9,0,9.3-0.9,13-2.7c3.8-1.9,7.1-4.4,9.7-7.6
		c2.6-3.2,4.6-6.9,6-11.2c1.4-4.3,2.1-8.8,2.1-13.6c0-4.9-0.7-9.5-2.2-13.8c-1.4-4.3-3.4-7.9-6.1-11.1c-2.7-3.2-6-5.6-10-7.4
		c-3.9-1.8-8.2-2.7-13.1-2.7c-4.8,0-9.1,0.9-12.9,2.7c-3.7,1.7-6.8,4.1-9.3,7.3c-2.5,3.1-4.5,6.8-5.8,11.1
		c-1.2,4.2-1.8,8.8-1.8,13.7c0,5.5,0.7,10.4,2.2,14.7c1.5,4.4,3.6,8,6.3,11.1c2.7,3,5.9,5.4,9.6,7C452.3,258.2,456.4,259,460.9,259z
		 M592.7,183.6l-0.4,2.2l-0.5,0.5c-1.3,0-2.6,0.1-3.8,0.2c-1.1,0.1-2.1,0.4-2.8,1c-0.7,0.6-1.3,1.3-1.8,2.2
		c-0.6,0.9-0.9,2.5-1.1,4.8c-0.1,1-0.2,2-0.2,3c0,1,0,2.2-0.1,3.6c0,1.4,0,3.1,0,5c0,2,0,4.4,0,7.2v23.6c0,4-0.6,7.8-1.8,11.3
		c-1.1,3.4-2.9,6.5-5.4,9.1c-2.5,2.5-5.6,4.5-9.3,6c-3.7,1.5-8,2.2-13,2.2c-5.7,0-10.6-0.7-14.6-2.2c-3.9-1.5-7.1-3.5-9.6-6
		c-2.5-2.6-4.3-5.7-5.4-9.1c-1.1-3.5-1.6-7.3-1.6-11.3v-23.6c0-2.9,0-5.3,0-7.2c0-2,0-3.6,0-5c0-1.4,0-2.6-0.1-3.6c0-1,0-2-0.1-3
		c-0.2-2.2-0.6-3.8-1.2-4.7c-0.6-1-1.2-1.8-1.8-2.3c-0.7-0.6-1.7-0.9-2.8-1c-1.1-0.2-2.4-0.2-3.7-0.2l-0.6-0.5l-0.4-2.2l0.2-0.5
		c0.6,0,1.5,0,2.8,0.1c1.3,0.1,2.7,0.2,4.1,0.2c1.4,0.1,2.7,0.2,4.1,0.2c1.3,0.1,2.3,0.1,2.8,0.1h2.3c0.6,0,1.5,0,2.8-0.1
		c1.3-0.1,2.7-0.2,4.1-0.2c1.4-0.1,2.7-0.2,4.1-0.2c1.3-0.1,2.3-0.1,2.8-0.1l0.2,0.5l-0.4,2.2l-0.5,0.5c-1.3,0-2.6,0.1-3.8,0.2
		c-1.1,0.1-2.1,0.4-2.8,1c-0.7,0.6-1.3,1.3-1.8,2.2c-0.6,0.9-0.9,2.5-1.1,4.8c-0.1,1.2-0.2,2.2-0.2,3.2c0,1,0,2.1-0.1,3.4
		c0,1.3,0,2.9,0,4.8c0,1.9,0,4.3,0,7.3v20.3c0,8.9,2,15.2,5.9,19c4,3.9,9.5,5.8,16.6,5.8c7,0,12.6-1.9,16.6-5.8c4-3.9,6-10.2,6-19
		v-20.3c0-3,0-5.4,0-7.3c0-1.9,0-3.5-0.1-4.8c0-1.3,0-2.5-0.1-3.4c0-1,0-2.1-0.1-3.2c-0.2-2.3-0.6-3.9-1.2-4.8
		c-0.6-0.9-1.2-1.7-1.8-2.2c-0.7-0.6-1.6-0.9-2.8-1c-1.1-0.2-2.4-0.2-3.7-0.2l-0.6-0.5l-0.4-2.2l0.2-0.5c0.6,0,1.4,0,2.6,0.1
		c1.1,0.1,2.3,0.2,3.6,0.2c1.3,0.1,2.5,0.2,3.7,0.2c1.1,0.1,2,0.1,2.6,0.1h2.7c0.6,0,1.5,0,2.7-0.1c1.2-0.1,2.5-0.2,3.8-0.2
		c1.4-0.1,2.7-0.2,3.9-0.2c1.2-0.1,2.1-0.1,2.7-0.1L592.7,183.6z M631.3,264.9c-0.6,0-1.5,0-2.8-0.1c-1.3-0.1-2.7-0.2-4.1-0.2
		c-1.4-0.1-2.7-0.2-4.1-0.2c-1.3-0.1-2.3-0.1-2.8-0.1h-2.3c-0.6,0-1.5,0-2.8,0.1c-1.3,0.1-2.7,0.2-4.1,0.2c-1.4,0.1-2.7,0.2-4.1,0.2
		c-1.3,0.1-2.3,0.1-2.8,0.1l-0.2-0.5l0.4-2.2l0.6-0.5c1,0,2.1,0,3.4-0.1c1.3-0.2,2.3-0.5,3.1-1c0.7-0.5,1.3-1.3,1.8-2.3
		c0.6-1.1,1-2.7,1.2-4.8c0-0.6,0-1.2,0-2c0.1-0.8,0.1-1.8,0.1-3c0.1-1.2,0.1-2.5,0.1-4.2c0-1.7,0-3.7,0-6.1v-31.9c0-1.7,0-3.5,0-5.5
		c0-2.1-0.1-4.2-0.2-6.3c-0.2-2.1-0.6-3.7-1.2-4.7c-0.6-1-1.2-1.8-1.8-2.3c-0.7-0.4-1.5-0.7-2.3-0.8c-0.7-0.2-2.1-0.4-4.2-0.4
		l-0.6-0.5l-0.4-2.2l0.2-0.5c0.6,0,1.3,0,2.2,0.1c1,0.1,2,0.2,2.9,0.2c1.1,0.1,2.1,0.2,3.2,0.2c1.1,0.1,2,0.1,2.9,0.1h4.4
		c0.9,0,1.9,0,3.1,0c1.1,0,2.3,0,3.4,0c1.2-0.1,2.3-0.1,3.3-0.1c1,0,1.8,0,2.5,0c5.5,0,10.1,0.5,13.9,1.6c3.9,1.1,7,2.6,9.3,4.5
		c2.4,2,4.1,4.3,5.2,7.1c1.1,2.7,1.7,5.7,1.7,9c0,4.8-1,8.7-2.9,11.8c-2,3-4.5,5.5-7.6,7.2c-3,1.7-6.5,2.9-10.3,3.6
		c-3.8,0.7-7.5,1-11.1,1h-6.9c0,2.2,0,4.5,0,7c0,2.5,0,4.8,0,7c0.1,2.2,0.1,4.2,0.1,6c0.1,1.8,0.2,3.1,0.2,3.9
		c0.2,2.4,0.6,4.1,1.2,5c0.7,0.9,1.2,1.6,1.7,2c0.7,0.4,1.5,0.7,2.2,1c0.8,0.2,2.3,0.2,4.4,0.2l0.5,0.5l0.4,2.2L631.3,264.9z
		 M631.9,224.2c6.9,0,11.8-1.6,14.7-4.7c2.9-3.1,4.4-7.4,4.4-12.9c0-5.6-1.7-9.9-5.2-12.7c-3.4-2.8-8-4.2-13.9-4.2h-10.7
		c-0.2,2.4-0.3,4.4-0.4,6c0,1.7,0,3.1-0.1,4.3c-0.1,1.2-0.1,2.3-0.1,3.3c0,1,0,1.9,0,2.8v13.4c0,1.1,0,1.9,0.1,2.6
		c0.1,0.6,0.3,1,0.6,1.4c0.3,0.2,0.8,0.4,1.4,0.5c0.7,0.1,1.5,0.1,2.6,0.1H631.9z"/>
	<path class="st0" d="M226.9,20.4l-7.5-19.6h3.2l4.8,12.5l6.2-12.1l6.3,12l4.7-12.5h3.2l-7.4,19.6l-6.7-12.7L226.9,20.4z
		 M271.7,17.4v3h-18.2V0.8h18.2v3h-15.2v5.3h10.3v3h-10.3v5.3H271.7z M282,16.7l-1.9,3.7h-3.4l10-20.4l10.4,20.4h-3.4l-2-3.7H282z
		 M286.8,6.5l-3.5,7.3h7.1L286.8,6.5z M302.6,20.4V0.8h3v16.6H319v3H302.6z M331.7,20.4V3.8h-8.2v-3h19.5v3h-8.2v16.6H331.7z
		 M351.9,12.1v8.3h-3V0.8h3v8.3h13.5V0.8h3v19.6h-3v-8.3H351.9z M395.6,20.4l-7.5-19.6h3.2l4.8,12.5l6.2-12.1l6.3,12l4.7-12.5h3.2
		l-7.4,19.6l-6.7-12.7L395.6,20.4z M425.2,0.8v19.6h-3V0.8H425.2z M439.4,20.4V3.8h-8.2v-3h19.5v3h-8.2v16.6H439.4z M459.7,12.1v8.3
		h-3V0.8h3v8.3h13.5V0.8h3v19.6h-3v-8.3H459.7z M493.4,20.4c-3,0-5.5-0.9-7.6-2.8c-2.1-1.9-3.2-4.2-3.2-7c0-1.8,0.5-3.5,1.5-5
		c1-1.5,2.3-2.7,4-3.5c1.6-0.8,3.4-1.3,5.3-1.3c3,0,5.5,0.9,7.6,2.8c2.1,1.9,3.2,4.2,3.2,6.9c0,2.7-1.1,5.1-3.2,7
		C498.9,19.4,496.3,20.4,493.4,20.4z M487.9,15.4c1.5,1.3,3.4,2,5.5,2c2.1,0,4-0.7,5.5-2s2.3-2.9,2.3-4.8c0-1.9-0.8-3.5-2.3-4.8
		s-3.3-2-5.5-2c-2.1,0-4,0.7-5.5,2c-1.5,1.3-2.3,2.9-2.3,4.8C485.6,12.5,486.4,14.1,487.9,15.4z M510.7,10.7V0.8h3v9.8
		c0,1.9,0.6,3.4,2,4.8s2.9,2,4.8,2s3.4-0.7,4.8-2s2-2.9,2-4.8V0.8h3v9.8c0,2.7-0.9,5-2.9,6.9c-1.9,1.9-4.2,2.8-6.9,2.8
		c-2.7,0-5-0.9-6.9-2.8C511.6,15.6,510.7,13.3,510.7,10.7z M544.4,20.4V3.8h-8.2v-3h19.5v3h-8.2v16.6H544.4z M575.6,20.4V0.8h3v16.6
		H592v3H575.6z M601,0.8v19.6h-3V0.8H601z M610.9,20.4l-3,0l2.6-20.2l10.8,13.3l10.8-13.3l2.6,20.2h-3l-1.7-13l-8.7,10.7l-8.7-10.7
		L610.9,20.4z M644.7,0.8v19.6h-3V0.8H644.7z M658.9,20.4V3.8h-8.2v-3h19.5v3h-8.2v16.6H658.9z M684.8,20.7c-1.9,0-3.7-0.3-5.5-1
		c-1.8-0.7-3-1.6-3.7-2.8l2.6-1.6c0.4,0.6,1.2,1.2,2.6,1.7s2.8,0.7,4.2,0.7c2.1,0,3.7-0.3,4.9-0.8c1-0.5,1.6-1.2,1.5-2.1
		c0-0.9-0.5-1.5-1.5-2c-0.5-0.2-1.5-0.5-2.3-0.5c-0.4-0.1-1.7-0.2-2.3-0.3c-2.8-0.2-4.8-0.6-6-1.1c-2.1-0.9-3.2-2.4-3.1-4.5
		c0-2.2,1.1-3.8,3.2-4.9c1.6-0.8,3.7-1.1,6.2-1.1c4.2,0,6.9,1.2,8.1,3.7l-2.6,1.4c-0.7-1.4-2.5-2.1-5.5-2.1c-1.5,0-2.8,0.2-4.2,0.6
		c-1.3,0.4-2.2,1.1-2.2,2.1c0,1.8,1.2,2.3,4,2.8c0.5,0.1,1.2,0.1,2.1,0.2c0.4,0,1,0.1,1.7,0.2c1.7,0.2,3.2,0.4,4.2,0.9
		c2.1,0.8,3.2,2.4,3.1,4.5c0,0.1,0,0.2,0,0.3C694,19.1,689.6,20.7,684.8,20.7z"/>
	<g>
		<path class="st0" d="M560.7,303.8c-0.4-0.5-0.9-1-1.4-1.3c-0.5-0.3-1-0.3-1.4-0.1c-1.8,1-3.7,2.2-5.7,3.7
			c-14.9-16.9-59.6-22.1-109.3-11.3c-15.7,3.4-30.3,8.1-43.1,13.6c0.4,0.6,0.7,1.2,1,2c0.2,0.4,0.3,0.7,0.4,1.1
			c3.3-1.4,7-2.9,10.8-4.1c9.8-3.6,20.4-6.7,31.6-9.1c19-4.1,88.4-15.3,107.6,8.5c-0.8,0.6-1.6,1.2-2.4,1.9
			c-3.2,2.6-6.4,5.5-9.7,8.6c-3.3,3.1-6.4,6.1-9.4,9.2c-3,3-5.7,5.8-8.2,8.3c-2.4,2.5-4.4,4.4-5.9,5.7c1.1-1.8,2.1-3.6,3.1-5.5
			c1-1.9,2.1-3.8,3.3-5.9c0.9-1.6,1.9-3.5,3-5.7c1.1-2.2,2-4.5,2.7-6.7c0.8-2.3,1.2-4.3,1.2-6.1c0-1.4-0.3-2.6-1-3.5
			c-0.7-0.9-1.9-1.4-3.6-1.4c-2.5,0-5.2,0.8-8.2,2.5c-2.9,1.6-5.9,3.8-9,6.6c-3,2.7-6,5.8-9,9.2c-3,3.3-5.8,6.7-8.4,10.2
			c1.1-1.9,2.3-4.1,3.5-6.4c1.3-2.3,2.7-5,4.3-8c0.1-0.2,0.2-0.3,0.3-0.5c3.6-7,10.5-20.1-1.2-22.7c-1.1-0.2-2.2-0.3-3.3-0.3
			c-1,0-1.9,0.1-2.9,0.2c-0.9,0.1-1.8,0.3-2.8,0.5c-5,1.3-9.6,3.4-14,6.3c-4.3,3-8.6,6.4-12.9,10.4c-5,4.6-9.9,9.7-14.8,15.2
			c-4.9,5.4-9.7,10.5-14.4,15.2c-3.1,3.1-6,6-8.9,8.7c-2.8,2.7-5,4.6-6.8,5.7c-1.1,0.8-2.1,1.3-3,1.7c-0.8,0.4-1.6,0.6-2.3,0.6
			c-1,0-1.8-0.4-2.2-1.3c-0.4-0.8-0.6-1.9-0.6-3.3c0-1.6,0.2-3.3,0.5-5.2c0.4-1.9,0.9-3.6,1.4-5.3c0.5-1.7,1-3,1.3-3.8
			c1-3,2.1-5.8,3.4-8.5c1.3-2.8,2.5-5,3.6-6.6c0.3-0.1,0.8-0.6,1.4-1.4c0.7-0.8,1.5-1.7,2.2-2.6c0.7-1,1.2-1.8,1.5-2.4
			c0.2-0.4,0-0.8-0.6-1.2c-0.5-0.3-1.2-0.7-1.9-0.9c-0.7-0.3-1.3-0.4-1.7-0.4c-1.5,0-2.7,0.7-3.5,2.1c-0.8,1.3-1.9,3.1-3.2,5.4
			c-1.3,2.2-3.1,4.8-5.5,7.8c-2.4,3-5.1,6-8.2,9.1c-3,3-6,5.8-9.2,8.4c-3.1,2.5-6,4.6-8.7,6.2c-2.7,1.6-5,2.4-6.9,2.4
			c-1.6,0-2.4-0.7-2.4-2.2c0-1.1,0.4-2.4,1.1-4c0.7-1.6,1.7-3.3,2.8-5.2c1.1-1.8,2.3-3.6,3.5-5.3c1.3-1.8,2.4-3.3,3.4-4.6
			c1.1-1.4,1.9-2.4,2.4-3.1c2.5-3,5-6,7.3-9.1c1.8-2.3,3.2-4.3,4.1-6.2l-0.1,0c1.4-2.6,1.6-4.7,1.3-6.4c0,0,0,0,0,0c0,0,0,0,0,0
			c0-0.2-0.1-0.4-0.2-0.6c0,0,0,0,0,0c-0.1-0.2-0.1-0.4-0.2-0.6c-0.1-0.3-0.3-0.6-0.4-0.9c0-0.1-0.1-0.2-0.1-0.2
			c-0.2-0.3-0.3-0.5-0.5-0.7c0,0,0,0,0,0c0,0,0,0,0,0c-0.7-0.9-1.5-1.5-2-1.7l0-0.1c-0.3-0.2-0.6-0.3-0.9-0.5
			c-3.1-1.6-7.4-2.4-13-2.4c-6,0-12.1,0.7-18.1,2.2c-6,1.4-11.9,3.4-17.5,5.9c-5.6,2.5-10.8,5.4-15.6,8.6c-4.8,3.2-9,6.6-12.6,10.2
			c-3.6,3.6-6.3,7.3-8.3,11c-2,3.7-3,7.2-3,10.6c0,3.4,0.9,5.8,2.6,7.2c1.8,1.3,4,2,6.5,2c1.2,0,2.4-0.1,3.7-0.3
			c1.3-0.2,2.5-0.6,3.6-1c0.4-0.2,0.6-0.4,0.6-0.6c0-0.4-0.4-0.6-1.1-0.6c-0.3,0-0.5,0-0.6,0.1c-0.9,0.2-1.8,0.5-2.8,0.6
			c-1,0.2-1.9,0.4-2.8,0.4c-1.5,0-2.8-0.5-4-1.5c-1.1-1-1.6-3-1.6-5.8c0-3.3,0.9-6.8,2.8-10.4c1.9-3.6,4.6-7.2,8-10.7
			c3.4-3.6,7.3-6.9,11.9-10.1c4.5-3.2,9.4-6,14.7-8.4c5.3-2.5,10.8-4.4,16.5-5.8c5.7-1.4,11.3-2.1,16.9-2.1c4.5,0,7.6,0.7,9.4,2
			c1.2,0.9,2,2,2.4,3.2c-29.5,14.3-47.3,32.8-43.9,48.8c5.2,23.9,56.3,33.1,114.1,20.5c16.3-3.5,47.2-12,69.5-25.6l-0.1-0.1
			c1.3-0.9,3.1-2.2,5.1-3.6c0,0,0,0,0,0c0.2-0.1,0.4-0.3,0.6-0.4c0.8-0.6,1.6-1.1,2.4-1.7c0.6-0.5,1.2-0.9,1.8-1.4
			c0.1-0.1,0.2-0.2,0.4-0.3c0,0,0,0,0,0c2.2-1.7,4-3.2,4.9-4.3l0.2,0.2c8.3-8.3,12.8-17.9,10.4-28.9c-0.1-0.6-0.3-1.1-0.5-1.7
			c0.8-1.1,1.7-2.2,2.5-3.2c0.8-0.9,1.4-1.8,1.7-2.7c0.4-1,0.5-1.8,0.5-2.5C561.3,304.8,561.1,304.3,560.7,303.8z M461,378
			c-20.6,4.5-103.8,17.8-111.4-17.1c-3-13.6,14.8-27.9,24.1-34.4c5.3-3.6,11.3-7.2,18-10.5c-0.2,1.2-0.6,2.5-1.2,3.9
			c-0.9,2.1-2.1,4.3-3.5,6.5c-1.4,2.2-3,4.3-4.6,6.5c-0.7,1-1.7,2.2-3,3.8c-1.3,1.6-2.6,3.3-4.1,5.2c-1.4,1.9-2.8,3.8-4.2,5.8
			c-1.3,1.9-2.3,3.8-3.2,5.5c-0.8,1.7-1.2,3.3-1.2,4.6c0,1.1,0.4,2,1.1,2.6c0.8,0.7,2,1,3.7,1c2.3,0,4.7-0.6,7.2-1.7
			c2.5-1.2,5.1-2.7,7.6-4.5c2.6-1.9,5.1-3.9,7.5-6.1c2.4-2.2,4.7-4.4,6.7-6.6c2.1-2.2,3.8-4.1,5.3-5.8c1.6-1.7,2.7-3.1,3.4-4
			c-0.9,2.2-1.8,4.7-2.6,7.5c-0.8,2.8-1.4,5.5-2,8.2c-0.5,2.6-0.7,4.7-0.7,6.3c0,2.8,0.7,4.9,2,6.2c1.3,1.3,2.9,2,4.8,2
			c2.1,0,4-0.6,5.9-1.8c2.7-1.6,5.4-3.8,8.2-6.5c2.8-2.7,5.6-5.6,8.4-8.8c3-3.3,6-6.8,9.2-10.4c3.2-3.6,6.5-7.2,10-10.8
			c3.4-3.6,7-6.9,10.7-10c4-3.4,8.2-6.3,12.6-8.8c4.4-2.5,8.6-4.2,12.7-5.2c1.5-0.4,3-0.6,4.5-0.6c6.7,0,5.9,4.9,4.3,10.2
			c-2.2,6.8-5.7,13.2-9,19.6c-0.5,0.9-1,1.9-1.5,2.8c-2.2,4.3-4.3,8.3-6.3,12c-1.9,3.6-3.5,6.7-4.8,9.2c-1.3,2.5-2,4.1-2.3,4.8
			c-0.3,1-0.6,1.8-0.9,2.5c-0.3,0.7-0.5,1.3-0.5,1.8c0,0.9,0.2,1.5,0.5,1.9c0.4,0.4,0.8,0.5,1.2,0.5c0.6,0,1.2-0.2,1.8-0.6
			c0.6-0.4,1.1-0.8,1.4-1.3c1.1-3.7,2.8-7.7,4.9-11.9c2.1-4.2,4.6-8.4,7.3-12.6c2.8-4.2,5.7-8.2,8.8-12c3.1-3.8,6.3-7.2,9.4-10.1
			c3.1-3,6.1-5.2,9-6.8c2.1-1.1,3.7-1.7,4.8-1.7c0.8,0,1.4,0.3,1.8,0.9c0.4,0.5,0.5,1.3,0.5,2.3c0,1.2-0.2,2.6-0.7,4.3
			c-0.5,1.6-1.1,3.3-1.8,5.1c-0.7,1.7-1.3,3.3-2,4.7c-0.7,1.5-1.2,2.6-1.5,3.4c-1.1,2.4-2.4,4.7-3.7,7c-1.3,2.2-2.4,4-3.3,5.5
			c-0.9,1.5-1.4,2.4-1.4,2.7c0,1,0.4,1.8,1.2,2.6c0.8,0.8,1.7,1.2,2.4,1.2c0.7,0,1.1-0.2,1.4-0.7c0.7-1.1,1.9-2.7,3.6-4.8
			c1.8-2.2,4-4.6,6.4-7.3c2.5-2.7,5.2-5.5,8-8.3c2.8-2.9,5.6-5.6,8.4-8.2c2.8-2.5,5.3-4.7,7.6-6.4c1.9-1.5,3.5-2.4,4.8-3
			c0.1,0.2,0.2,0.4,0.3,0.5c-6,9.9-10.6,19.8-13.7,29.5c-1.1,3.4-2,6.6-2.7,9.8C514.5,364.7,478.3,374.2,461,378z M555.6,315.9
			c2.5,11.4-3.4,21.2-13.4,29.4c0.7-2.7,1.5-5.5,2.5-8.3c1.8-5.1,3.8-9.9,6.3-14.5c1.4-2.6,2.9-5.1,4.5-7.3
			C555.5,315.4,555.5,315.7,555.6,315.9z"/>
		<path class="st0" d="M560.1,371.5c-0.1,0-0.1,0-0.2,0.1c-1.2,0.9-2.6,1.8-4.3,2.8c-1.6,1-3.3,1.9-5,2.6c-1.7,0.7-3.2,1.1-4.6,1.3
			c-2.4,0.1-4.1-1.1-5.2-3.5c-1.1-2.4-1.6-5.7-1.6-9.7c0-3.1,0.3-6.6,0.9-10.4c-1.7,1.3-3.5,2.5-4.9,3.5c-0.4,3-0.6,5.9-0.6,8.7
			c0,3.7,0.8,6.9,2.5,9.6c1.7,2.7,4.3,4.1,7.8,4.1c1.9,0,3.7-0.3,5.3-1c1.7-0.7,3.2-1.5,4.6-2.4c1.4-0.9,2.5-1.8,3.4-2.6
			c0.9-0.8,1.5-1.3,1.7-1.6c0.1-0.2,0.2-0.4,0.1-0.7C560.3,371.6,560.2,371.5,560.1,371.5z"/>
	</g>
</g>
</svg>
