<?xml version="1.0" encoding="utf-8"?>
<!-- Generator: Adobe Illustrator 23.1.0, SVG Export Plug-In . SVG Version: 6.00 Build 0)  -->
<svg version="1.1" id="Layer_1" xmlns="http://www.w3.org/2000/svg" xmlns:xlink="http://www.w3.org/1999/xlink" x="0px" y="0px"
	 viewBox="0 0 718.6 274.3" style="enable-background:new 0 0 718.6 274.3;" xml:space="preserve">
<style type="text/css">
	.st0{fill:#1C2833;}
</style>
<g>
	<path class="st0" d="M716.9,41c-1.2-1.5-2.5-2.7-4.1-3.6c-1.5-0.8-2.8-0.9-3.8-0.3c-5.1,2.8-10.4,6.2-16,10.3
		c-41.8-47.2-167-62-306-31.7c-44,9.6-84.9,22.7-120.8,38.1c1.1,1.7,2.1,3.5,2.9,5.5c0.4,1,0.8,2.1,1.1,3.1
		c9.2-4,19.6-8.2,30.2-11.5c27.4-10,57.2-18.6,88.7-25.5c53.2-11.6,247.7-42.8,301.4,23.9c-2.2,1.7-4.5,3.4-6.8,5.3
		c-9,7.3-18,15.3-27.2,24.1c-9.1,8.6-17.9,17.3-26.4,25.9c-8.5,8.5-16.1,16.2-22.8,23.1c-6.8,6.9-12.3,12.3-16.5,16
		c3-5.1,5.9-10.2,8.6-15.5c2.9-5.2,5.9-10.7,9.1-16.5c2.5-4.6,5.3-9.9,8.4-16c3-6.3,5.6-12.5,7.6-18.8c2.2-6.4,3.3-12.1,3.3-17
		c0-4.1-0.9-7.4-2.8-9.9c-1.9-2.5-5.2-3.8-10.1-3.8c-6.9,0-14.6,2.3-22.9,6.9c-8.1,4.6-16.5,10.7-25.1,18.5
		c-8.5,7.6-16.8,16.2-25.1,25.6c-8.3,9.3-16.2,18.8-23.6,28.4c3-5.4,6.4-11.3,9.9-17.8c3.7-6.6,7.7-14,11.9-22.3
		c0.2-0.5,0.5-0.9,0.7-1.4c10.1-19.5,29.3-56.4-3.3-63.6c-3-0.5-6.1-0.8-9.1-0.8c-2.7,0-5.4,0.2-8.1,0.5c-2.5,0.3-5.2,0.8-7.9,1.3
		c-13.9,3.6-27,9.5-39.3,17.8c-12.2,8.3-24.2,18-36.1,29.2c-13.9,13-27.7,27.2-41.4,42.6c-13.7,15.2-27.2,29.4-40.4,42.6
		c-8.6,8.8-16.9,16.9-24.9,24.4c-7.8,7.5-14.1,12.8-19,16c-3.2,2.2-6,3.8-8.4,4.8c-2.4,1-4.5,1.5-6.3,1.5c-2.9,0-4.9-1.2-6.1-3.6
		c-1.2-2.4-1.8-5.4-1.8-9.1c0-4.4,0.5-9.2,1.5-14.5c1.2-5.3,2.5-10.2,3.8-14.7c1.5-4.7,2.7-8.3,3.6-10.7c2.9-8.3,6-16.3,9.4-23.9
		c3.6-7.8,6.9-14,10.1-18.5c0.9-0.3,2.2-1.6,4.1-3.8c2-2.2,4.1-4.7,6.1-7.4c2-2.9,3.4-5.1,4.1-6.6c0.5-1.2-0.1-2.3-1.8-3.3
		c-1.5-1-3.3-1.9-5.3-2.5c-2-0.8-3.6-1.3-4.8-1.3c-4.2,0-7.5,1.9-9.9,5.8c-2.4,3.7-5.3,8.7-8.9,15c-3.6,6.3-8.7,13.5-15.5,21.8
		c-6.8,8.3-14.4,16.7-22.8,25.4c-8.3,8.5-16.8,16.3-25.6,23.6c-8.6,7.1-16.8,13-24.4,17.5c-7.6,4.4-14,6.6-19.3,6.6
		c-4.4,0-6.6-2-6.6-6.1c0-3,1-6.8,3-11.2c2-4.6,4.7-9.4,7.9-14.5c3.2-5.1,6.5-10.1,9.9-15c3.6-4.9,6.8-9.2,9.6-12.9
		c3-3.9,5.3-6.8,6.9-8.6c7.1-8.5,14-16.9,20.6-25.4c5.1-6.4,8.9-12.1,11.5-17.3l-0.2-0.1c4-7.4,4.5-13.3,3.6-17.9c0,0,0,0,0,0
		c0-0.1,0-0.1,0-0.2c-0.1-0.6-0.3-1.1-0.4-1.6c0-0.1,0-0.1-0.1-0.2c-0.2-0.6-0.4-1.1-0.6-1.6c-0.2-0.6-0.5-1.2-0.8-1.7
		c-0.1-0.2-0.2-0.3-0.3-0.5c-0.2-0.4-0.5-0.8-0.7-1.2c-0.1-0.1-0.2-0.3-0.3-0.4c-0.3-0.5-0.6-0.9-1-1.3c-2-2.5-4.2-4.1-5.8-4.9
		l0.1-0.2c-0.8-0.5-1.6-1-2.5-1.4c-8.6-4.4-20.7-6.6-36.3-6.6c-16.9,0-33.8,2-50.8,6.1c-16.9,4.1-33.3,9.6-49,16.5
		c-15.6,6.9-30.1,15-43.7,24.1c-13.4,9-25.1,18.5-35.3,28.7c-10,10.1-17.8,20.4-23.4,30.7C2.8,162.2,0,172.1,0,181.5
		c0,9.6,2.5,16.3,7.4,20.1c5.1,3.7,11.2,5.6,18.3,5.6c3.4,0,6.9-0.3,10.4-1c3.6-0.7,6.9-1.6,10.2-2.8c1.2-0.5,1.8-1.1,1.8-1.8
		c0-1-1-1.5-3-1.5c-0.8,0-1.4,0.1-1.8,0.2c-2.5,0.7-5.2,1.3-7.9,1.8c-2.7,0.7-5.3,1-7.9,1c-4.2,0-8-1.4-11.2-4.1
		c-3-2.9-4.6-8.3-4.6-16.2c0-9.3,2.6-19,7.9-29.2c5.4-10.1,12.9-20.1,22.3-30c9.5-10,20.6-19.4,33.3-28.2
		c12.7-9,26.4-16.8,41.1-23.6c14.9-6.9,30.3-12.4,46.2-16.3c15.9-3.9,31.7-5.8,47.5-5.8c12.5,0,21.3,1.9,26.4,5.6
		c3.4,2.5,5.6,5.5,6.7,9c-82.6,40-132.6,91.9-122.9,136.6c14.6,67,157.7,92.7,319.6,57.5c45.6-9.9,132.1-33.7,194.7-71.7l-0.2-0.3
		c4.3-3,11.1-7.7,18.1-12.8c0.2-0.1,0.4-0.3,0.6-0.4c1.3-1,2.6-1.9,3.9-2.9c1-0.8,2.1-1.6,3.1-2.3c0,0,0,0,0,0
		c0.8-0.6,1.6-1.2,2.4-1.8c0.2-0.2,0.4-0.3,0.6-0.5c0,0,0,0,0,0c6.1-4.7,11.2-9,13.8-12l0.5,0.4c23.3-23.2,35.8-50.1,29.1-80.8
		c-0.3-1.6-0.8-3.1-1.3-4.6c2.3-3.1,4.7-6.1,7.1-8.9c2.4-2.5,4-5.1,4.8-7.6c1-2.7,1.5-5,1.5-6.9C718.6,43.9,718.1,42.5,716.9,41z
		 M437.6,248.8C380,261.3,146.8,298.7,125.5,201c-8.3-38,41.4-78.2,67.5-96.3c14.7-10.2,31.7-20.1,50.5-29.4
		c-0.6,3.4-1.7,7-3.3,10.9c-2.5,5.9-5.8,12-9.9,18.3c-4.1,6.1-8.4,12.2-12.9,18.3c-2,2.7-4.8,6.3-8.4,10.7
		c-3.6,4.4-7.4,9.2-11.4,14.5c-4.1,5.2-8,10.7-11.7,16.2c-3.6,5.4-6.5,10.6-8.9,15.5c-2.2,4.9-3.3,9.2-3.3,13c0,3,1,5.5,3,7.4
		c2.2,1.9,5.7,2.8,10.4,2.8c6.4,0,13.1-1.6,20.1-4.8c7.1-3.2,14.2-7.5,21.3-12.7c7.3-5.2,14.3-10.9,21.1-17
		c6.8-6.3,13-12.4,18.8-18.5c5.8-6.1,10.7-11.5,15-16.3c4.4-4.9,7.6-8.6,9.6-11.2c-2.5,6.1-5,13.1-7.4,21.1
		c-2.2,7.8-4.1,15.4-5.6,22.8c-1.4,7.3-2,13.2-2,17.8c0,8,1.9,13.7,5.6,17.2c3.7,3.7,8.2,5.6,13.5,5.6c5.8,0,11.2-1.7,16.5-5.1
		c7.4-4.6,15.1-10.6,22.8-18c8-7.6,15.8-15.8,23.6-24.6c8.3-9.3,16.9-19,25.9-29.2c9-10.1,18.3-20.2,27.9-30.2
		c9.6-10,19.6-19.3,30-27.9c11.3-9.5,23.1-17.7,35.3-24.6c12.4-6.9,24.2-11.8,35.5-14.5c4.2-1.2,8.5-1.8,12.7-1.8
		c18.8,0,16.7,13.7,11.9,28.5c-6.2,19.1-15.8,37.1-25.3,54.9c-1.4,2.6-2.8,5.2-4.1,7.8c-6.2,12-12.1,23.2-17.5,33.5
		c-5.4,10.2-9.9,18.7-13.5,25.6c-3.6,6.9-5.7,11.4-6.4,13.5c-0.8,2.7-1.7,5.1-2.5,7.1c-0.9,2-1.3,3.7-1.3,5.1c0,2.5,0.5,4.3,1.5,5.3
		c1,1,2.1,1.5,3.3,1.5c1.7,0,3.4-0.6,5.1-1.8c1.7-1.2,3-2.4,3.8-3.6c3.2-10.5,7.8-21.6,13.7-33.3c5.9-11.8,12.8-23.6,20.6-35.3
		c7.8-11.9,16-23,24.6-33.5c8.8-10.7,17.6-20.1,26.4-28.2c8.8-8.3,17.2-14.6,25.1-19c5.8-3.2,10.2-4.8,13.5-4.8
		c2.4,0,4.1,0.9,5.1,2.5c1,1.5,1.5,3.6,1.5,6.3c0,3.4-0.7,7.5-2,12.2c-1.4,4.6-3,9.3-5.1,14.2c-1.9,4.7-3.7,9.1-5.6,13.2
		c-1.9,4.1-3.3,7.2-4.3,9.4c-3.2,6.8-6.7,13.3-10.4,19.5c-3.6,6.1-6.6,11.3-9.1,15.5c-2.5,4.1-3.8,6.6-3.8,7.6
		c0,2.7,1.1,5.2,3.3,7.4c2.4,2.2,4.6,3.3,6.9,3.3c1.9,0,3.2-0.7,4.1-2c1.9-3,5.3-7.5,10.2-13.5c5.1-6.1,11.1-13,18-20.6
		c7.1-7.6,14.6-15.4,22.3-23.3c8-8.1,15.8-15.7,23.6-22.9c7.8-7.1,14.9-13.1,21.3-18c5.3-4,9.8-6.8,13.5-8.3c0.3,0.5,0.6,1,0.9,1.5
		c-16.7,27.8-29.5,55.4-38.4,82.7c-3.1,9.4-5.6,18.6-7.7,27.4C587.4,211.7,486,238.2,437.6,248.8z M702.6,74.9
		c6.9,31.8-9.5,59.2-37.6,82.4c2-7.6,4.3-15.4,6.9-23.2c4.9-14.2,10.7-27.7,17.5-40.6c4-7.4,8.2-14.3,12.7-20.6
		C702.3,73.6,702.5,74.2,702.6,74.9z"/>
	<path class="st0" d="M715.3,230.6c-0.2,0-0.3,0.1-0.5,0.2c-3.4,2.5-7.4,5.2-11.9,7.9c-4.6,2.9-9.2,5.2-14,7.1
		c-4.7,2-9.1,3.2-12.9,3.6c-6.6,0.3-11.4-3-14.5-9.9c-3-6.8-4.6-15.8-4.6-27.2c0-8.8,0.8-18.6,2.5-29.2c-4.9,3.6-9.7,7-13.6,9.8
		c-1.1,8.4-1.6,16.5-1.6,24.3c0,10.5,2.4,19.5,7.1,26.9c4.7,7.6,12,11.4,21.8,11.4c5.3,0,10.2-0.9,15-2.8c4.7-1.9,9.1-4.1,13-6.9
		c3.9-2.5,7.1-5,9.6-7.4c2.5-2.2,4.1-3.7,4.8-4.6c0.3-0.5,0.4-1.2,0.2-2C715.9,231,715.7,230.6,715.3,230.6z"/>
</g>
</svg>
