<?xml version="1.0" encoding="utf-8"?>
<!-- Generator: Adobe Illustrator 23.1.0, SVG Export Plug-In . SVG Version: 6.00 Build 0)  -->
<svg version="1.1" id="Layer_1" xmlns="http://www.w3.org/2000/svg" xmlns:xlink="http://www.w3.org/1999/xlink" x="0px" y="0px"
	 viewBox="0 0 597.7 325.5" style="enable-background:new 0 0 597.7 325.5;" xml:space="preserve">
<style type="text/css">
	.st0{fill:#C2A878;}
</style>
<g>
	<path class="st0" d="M25.2,268.5L12.1,232c-0.6-1.6-1.1-2.9-1.5-4c-0.4-1.1-0.7-2-1-2.7c-0.3-0.8-0.5-1.4-0.7-1.8
		c-0.2-0.5-0.4-0.9-0.6-1.4c-0.6-1.3-1.2-2.4-1.8-3.1c-0.6-0.8-1.2-1.3-1.8-1.6c-0.6-0.4-1.3-0.6-2-0.6c-0.6-0.1-1.3-0.1-2-0.1
		l-0.4-0.3L0,214.9l0.1-0.3c0.4,0,0.9,0,1.6,0.1c0.8,0.1,1.5,0.1,2.3,0.2c0.8,0.1,1.6,0.1,2.3,0.2C7.1,215,7.7,215,8,215h2.7
		c0.4,0,1,0,1.8-0.1c0.9-0.1,1.7-0.1,2.7-0.2c1-0.1,1.9-0.1,2.7-0.2c0.9-0.1,1.5-0.1,1.8-0.1l0.2,0.3l-0.2,1.4l-0.4,0.3
		c-1.6,0-2.8,0.2-3.6,0.6c-0.9,0.3-1.3,1.3-1.3,2.8c0,1.2,0.4,3,1.2,5.2c0.9,2.2,1.9,5,3.1,8.4l5.5,14.8c1,2.8,1.9,5.3,2.7,7.6
		c0.8,2.2,1.5,4.1,2.2,5.7c0.6-1.6,1.3-3.4,2.1-5.5c0.9-2.1,1.8-4.7,2.9-7.7l5.5-14.8c0.8-2.1,1.4-3.9,2-5.5
		c0.6-1.6,1.2-3.1,1.6-4.3c-0.3-0.9-0.6-1.7-1-2.5c-0.3-0.8-0.8-1.5-1.3-2.2c-0.5-0.6-1.1-1.2-1.9-1.6c-0.8-0.4-1.8-0.7-3-0.8
		l-0.4-0.3l-0.2-1.4l0.1-0.3c0.4,0,0.9,0,1.6,0.1c0.8,0.1,1.5,0.1,2.3,0.2c0.8,0.1,1.6,0.1,2.3,0.2c0.8,0.1,1.3,0.1,1.7,0.1H46
		c0.4,0,1,0,1.8-0.1c0.8-0.1,1.7-0.1,2.6-0.2c0.9-0.1,1.8-0.1,2.6-0.2c0.8-0.1,1.4-0.1,1.8-0.1l0.2,0.3l-0.2,1.4l-0.4,0.3
		c-0.6,0-1.2,0.1-1.9,0.3c-0.6,0.2-1.3,0.4-1.8,0.8c-0.5,0.4-1,0.8-1.4,1.4c-0.3,0.5-0.5,1.2-0.5,1.8c0,0.5,0.1,0.9,0.2,1.1
		c0.3,1.3,0.8,2.9,1.5,4.8c0.8,1.9,1.6,4.1,2.5,6.7l5.5,14.8c1,2.7,1.9,5.3,2.7,7.6c0.8,2.3,1.5,4.2,2.1,5.7
		c0.6-1.6,1.3-3.4,2.1-5.5c0.9-2.1,1.8-4.7,2.9-7.7l5.5-14.8c1.2-3.4,2.3-6.2,3.1-8.4c0.9-2.3,1.3-4,1.3-5.2c0-1.6-0.4-2.5-1.3-2.8
		c-0.9-0.4-2.1-0.6-3.6-0.6l-0.3-0.3l-0.2-1.4l0.2-0.3c0.4,0,1,0,1.8,0.1c0.8,0.1,1.6,0.1,2.5,0.2c0.9,0.1,1.7,0.1,2.5,0.2
		c0.8,0.1,1.4,0.1,1.8,0.1h1.5c0.4,0,0.9,0,1.6-0.1c0.8-0.1,1.5-0.1,2.3-0.2c0.8-0.1,1.6-0.1,2.3-0.2c0.8-0.1,1.3-0.1,1.7-0.1
		l0.2,0.3l-0.2,1.4l-0.4,0.3c-0.7,0-1.4,0-2,0.1c-0.6,0.1-1.3,0.3-1.9,0.6c-0.6,0.3-1.3,0.9-1.9,1.6c-0.6,0.7-1.2,1.7-1.8,3.1
		c-0.2,0.4-0.4,1-0.7,1.6c-0.3,0.6-0.8,1.8-1.4,3.6c-0.7,1.8-1.7,4.3-3.1,7.6c-1.3,3.3-3,7.7-5.2,13.4c-0.8,1.9-1.5,3.8-2.3,5.9
		c-0.8,2-1.5,3.9-2.3,5.7c-0.7,1.8-1.3,3.4-1.8,4.7c-0.5,1.4-0.9,2.4-1.1,3l-4.2,0.9h-1l-14-38.8c-0.8,1.9-1.7,4.3-2.9,7.2
		c-1.1,2.9-2.6,6.7-4.3,11.3c-0.7,1.9-1.4,3.8-2.3,5.9c-0.8,2-1.6,3.9-2.3,5.7c-0.7,1.8-1.3,3.4-1.8,4.7c-0.5,1.4-0.9,2.4-1.1,3
		l-4.2,0.9H25.2z M159.3,268.1c-0.4,0-1,0-1.8-0.1c-0.9-0.1-1.7-0.1-2.7-0.2c-0.9-0.1-1.8-0.1-2.7-0.2c-0.9-0.1-1.5-0.1-1.8-0.1
		h-1.5c-0.4,0-1,0-1.8,0.1c-0.9,0.1-1.7,0.1-2.7,0.2c-0.9,0.1-1.8,0.1-2.7,0.2c-0.9,0.1-1.5,0.1-1.8,0.1l-0.2-0.3l0.2-1.4l0.3-0.3
		c0.9,0,1.7,0,2.4-0.1c0.8-0.1,1.4-0.3,1.8-0.7c0.4-0.4,0.7-0.9,1-1.4c0.4-0.6,0.6-1.6,0.6-3.1c0-0.4,0-0.8,0-1.3
		c0-0.5,0-1.2-0.1-1.9c0-0.8,0-1.7-0.1-2.7c-0.1-1.1-0.1-2.4-0.2-4c-0.4-5.6-0.8-10.1-1-13.4c-0.2-3.4-0.4-6-0.6-7.9
		c-0.2-1.9-0.3-3.2-0.4-4c-0.1-0.8-0.1-1.5-0.2-2c-0.4,1-1,2.5-1.8,4.5c-0.8,2-1.7,4.3-2.8,6.9c-1,2.6-2.1,5.3-3.3,8.3
		c-1.2,2.9-2.4,5.9-3.5,8.8c-1.1,2.9-2.2,5.6-3.3,8.2c-1,2.6-1.9,4.8-2.7,6.6h-3.8l-16.1-43.1c-0.1,0.5-0.1,1.1-0.2,1.7
		c-0.1,0.6-0.1,1.3-0.2,2.2c-0.1,0.8-0.1,1.8-0.2,2.9c-0.1,1.1-0.1,2.4-0.2,4l-1.1,14.8c-0.2,1.8-0.3,3.3-0.3,4.5
		c-0.1,1.2-0.1,2.2-0.2,3.1c-0.1,0.9-0.1,1.6-0.1,2.2s0,1.2,0,1.8c0,1.5,0.2,2.5,0.5,3.1c0.4,0.6,0.8,1.1,1.2,1.4
		c0.4,0.4,0.9,0.6,1.4,0.7c0.6,0.1,1.3,0.1,2.2,0.1l0.3,0.3l0.2,1.4l-0.2,0.3c-0.4,0-0.9,0-1.7-0.1c-0.7-0.1-1.4-0.1-2.2-0.2
		c-0.8-0.1-1.5-0.1-2.3-0.2c-0.7-0.1-1.2-0.1-1.6-0.1h-1.5c-0.4,0-1,0-1.8,0.1c-0.8,0.1-1.7,0.1-2.7,0.2c-0.9,0.1-1.8,0.1-2.7,0.2
		c-0.8,0.1-1.4,0.1-1.8,0.1l-0.2-0.3l0.2-1.4l0.5-0.3c0.8,0,1.6,0,2.3-0.1c0.8-0.1,1.4-0.3,1.9-0.7c0.4-0.4,0.9-0.9,1.3-1.4
		c0.5-0.6,0.8-1.6,1-3.1c0.1-0.4,0.1-0.8,0.2-1.3c0.1-0.5,0.1-1.2,0.2-1.9c0.1-0.8,0.2-1.7,0.3-2.7c0.1-1.1,0.2-2.4,0.3-4l1.1-16.3
		c0.2-1.9,0.3-3.5,0.3-4.7c0.1-1.3,0.2-2.4,0.2-3.3c0.1-0.9,0.1-1.7,0.1-2.3c0.1-0.6,0.1-1.3,0.1-1.9c0-1.5-0.2-2.5-0.7-3.1
		c-0.4-0.6-0.9-1.1-1.3-1.4c-0.5-0.4-1.1-0.6-1.8-0.6c-0.8-0.1-1.6-0.2-2.4-0.2l-0.4-0.3l-0.2-1.4l0.2-0.3c0.4,0,1,0,1.8,0.1
		c0.9,0.1,1.7,0.1,2.7,0.2c0.9,0.1,1.8,0.1,2.7,0.2c0.9,0.1,1.5,0.1,1.8,0.1h2.8c0.4,0,1,0,1.8-0.1c0.8-0.1,1.4-0.1,1.9-0.2l0.4,0.2
		c0.1,0.7,0.2,1.6,0.6,2.8c0.4,1.1,0.8,2.4,1.3,3.9c0.5,1.4,1.1,3,1.7,4.7c0.6,1.6,1.2,3.2,1.8,4.8l5.5,14.9
		c0.9,2.6,1.7,4.8,2.5,6.6c0.8,1.8,1.4,3.4,2,4.7c0.2-0.3,0.6-1.3,1.4-3.1c0.8-1.8,1.7-4,2.7-6.7c1.1-2.7,2.3-5.6,3.5-8.8
		c1.2-3.2,2.4-6.2,3.5-9.2c1.1-3.1,2.1-5.9,2.9-8.4c0.8-2.6,1.3-4.6,1.5-6.1l0.4-0.3c0.4,0.1,0.9,0.2,1.4,0.2
		c0.5,0.1,0.9,0.1,1.4,0.1h2.9c0.4,0,1,0,1.8-0.1c0.9-0.1,1.7-0.1,2.7-0.2c0.9-0.1,1.8-0.1,2.7-0.2c0.9-0.1,1.5-0.1,1.8-0.1l0.2,0.3
		l-0.2,1.4l-0.4,0.3c-0.9,0-1.7,0.1-2.5,0.2c-0.8,0.1-1.3,0.3-1.8,0.6c-0.4,0.3-0.9,0.8-1.4,1.4c-0.4,0.6-0.6,1.7-0.6,3.1
		c0,0.8,0,1.4,0,2.1c0.1,0.6,0.1,1.4,0.1,2.3c0.1,0.9,0.1,1.9,0.2,3.1c0.1,1.2,0.2,2.8,0.4,4.7l1,14.8c0.2,1.9,0.3,3.5,0.3,4.7
		c0.1,1.2,0.2,2.2,0.2,3c0.1,0.8,0.2,1.5,0.2,2.1c0.1,0.5,0.2,1.1,0.3,1.8c0.2,1.5,0.5,2.5,1,3.1c0.4,0.6,0.9,1.1,1.3,1.4
		c0.5,0.4,1.1,0.6,1.8,0.7c0.8,0.1,1.6,0.1,2.5,0.1l0.4,0.3l0.2,1.4L159.3,268.1z M191.2,222c-0.1-1.5-0.4-2.5-0.8-3.1
		c-0.4-0.6-0.8-1.1-1.2-1.4c-0.5-0.4-1.1-0.6-1.8-0.6c-0.8-0.1-1.6-0.2-2.4-0.2l-0.4-0.3l-0.2-1.4l0.2-0.3c0.4,0,1,0,1.8,0.1
		c0.9,0.1,1.7,0.1,2.7,0.2c0.9,0.1,1.8,0.1,2.7,0.2c0.9,0.1,1.5,0.1,1.8,0.1h14c0.7,0,1.7,0,3.1,0c1.4-0.1,2.9-0.1,4.3-0.2
		c1.4-0.1,2.7-0.1,3.9-0.1c1.2-0.1,1.9-0.1,2.2-0.1l0.4,0.8l-0.3,8.8h-2l-0.3-0.3c-0.1-1.2-0.3-2.2-0.5-2.9
		c-0.2-0.7-0.7-1.2-1.6-1.5c-0.9-0.3-2.2-0.5-3.9-0.6c-1.8-0.1-4.3-0.1-7.5-0.1h-7.7l-0.2,3.1c-0.1,0.8-0.1,1.4-0.2,2.1
		c0,0.6,0,1.4-0.1,2.3c0,0.9,0,1.9,0,3.1s0,4.1,0,8.7c1.6-0.1,3.2-0.1,4.8-0.1c1.6,0,3.1,0,4.3-0.1c1.3-0.1,2.5-0.2,3.4-0.3
		c0.9-0.2,1.5-0.5,1.8-0.9c0.4-0.4,0.8-0.9,1.1-1.3c0.3-0.4,0.5-1,0.5-1.8l0.4-0.4l1.4-0.2l0.3,0.2c-0.1,1.2-0.2,2.3-0.3,3.2
		c-0.1,0.9-0.1,2-0.1,3.1c0,1.3,0,2.5,0.1,3.6c0.1,1.1,0.2,2.3,0.3,3.5l-0.3,0.2l-1.4-0.2l-0.3-0.2c0-0.9-0.2-1.6-0.5-2.3
		c-0.3-0.8-0.7-1.4-1.1-1.8c-0.3-0.3-0.9-0.6-1.8-0.7c-0.9-0.2-2-0.3-3.3-0.3c-1.3-0.1-2.7-0.1-4.3-0.1c-1.6,0-3.2,0-4.9,0v7.8
		c0,1.9,0,3.5,0,4.7c0,1.2,0,2.2,0,3c0.1,0.8,0.1,1.5,0.1,2.1c0.1,0.5,0.1,1.1,0.2,1.8c0.1,1.5,0.4,2.5,0.8,3.1
		c0.5,0.6,0.9,1.1,1.4,1.4c0.5,0.4,1.2,0.6,2.1,0.7c1,0.1,1.9,0.1,2.7,0.1l0.4,0.3l0.2,1.4l-0.2,0.3c-0.4,0-1,0-2-0.1
		c-0.9-0.1-1.9-0.1-2.9-0.2c-1-0.1-2-0.1-3-0.2c-0.9-0.1-1.6-0.1-1.9-0.1h-1.5c-0.4,0-1,0-1.8,0.1c-0.9,0.1-1.7,0.1-2.7,0.2
		c-0.9,0.1-1.8,0.1-2.7,0.2c-0.9,0.1-1.5,0.1-1.8,0.1l-0.2-0.3l0.2-1.4l0.4-0.3c0.9,0,1.7,0,2.4-0.1c0.8-0.1,1.4-0.3,1.8-0.7
		c0.4-0.4,0.8-0.9,1.2-1.4c0.4-0.6,0.7-1.6,0.8-3.1c0-0.4,0-0.8,0-1.3c0.1-0.5,0.1-1.2,0.1-1.9c0.1-0.8,0.1-1.7,0.1-2.7
		c0-1.1,0-2.4,0-4v-16.3c0-1.9,0-3.5,0-4.7c0-1.3,0-2.4-0.1-3.3c0-0.9,0-1.7-0.1-2.3C191.2,223.3,191.2,222.7,191.2,222z
		 M246.7,214.9l-0.2,1.4l-0.3,0.3c-0.9,0-1.7,0.1-2.5,0.2c-0.8,0.1-1.4,0.3-1.8,0.6c-0.4,0.4-0.8,0.9-1.2,1.4
		c-0.4,0.6-0.6,1.6-0.7,3.1c-0.1,0.8-0.1,1.4-0.2,2.1c0,0.6,0,1.4-0.1,2.3c0,0.9,0,1.9,0,3.1s0,2.8,0,4.7V249c0,1.9,0,3.5,0,4.7
		c0,1.2,0,2.2,0,3c0.1,0.8,0.1,1.5,0.1,2.1c0.1,0.5,0.1,1.1,0.2,1.8c0.1,1.5,0.3,2.5,0.7,3.1c0.4,0.6,0.8,1.1,1.2,1.4
		c0.5,0.4,1.1,0.6,1.8,0.7c0.8,0.1,1.6,0.1,2.5,0.1l0.3,0.3l0.2,1.4l-0.2,0.3c-0.4,0-1,0-1.8-0.1c-0.9-0.1-1.7-0.1-2.7-0.2
		c-0.9-0.1-1.8-0.1-2.7-0.2c-0.9-0.1-1.5-0.1-1.8-0.1H236c-0.4,0-1,0-1.8,0.1c-0.9,0.1-1.7,0.1-2.7,0.2c-0.9,0.1-1.8,0.1-2.7,0.2
		c-0.9,0.1-1.5,0.1-1.8,0.1l-0.2-0.3l0.2-1.4l0.4-0.3c0.9,0,1.7,0,2.4-0.1c0.8-0.1,1.4-0.3,1.8-0.7c0.4-0.4,0.8-0.9,1.2-1.4
		c0.4-0.6,0.7-1.6,0.8-3.1c0-0.4,0-0.8,0-1.3c0.1-0.5,0.1-1.2,0.1-1.9c0.1-0.8,0.1-1.7,0.1-2.7c0-1.1,0-2.4,0-4v-16.3
		c0-1.9,0-3.5,0-4.7c0-1.3,0-2.4-0.1-3.3c0-0.9,0-1.7-0.1-2.3c0-0.6,0-1.3-0.1-1.9c-0.1-1.4-0.3-2.4-0.7-3.1
		c-0.4-0.6-0.8-1.2-1.2-1.5c-0.5-0.4-1.1-0.6-1.8-0.6c-0.8-0.1-1.6-0.2-2.4-0.2l-0.4-0.3l-0.2-1.4l0.2-0.3c0.4,0,1,0,1.8,0.1
		c0.9,0.1,1.7,0.1,2.7,0.2c0.9,0.1,1.8,0.1,2.7,0.2c0.9,0.1,1.5,0.1,1.8,0.1h1.5c0.4,0,1,0,1.8-0.1c0.9-0.1,1.7-0.1,2.7-0.2
		c0.9-0.1,1.8-0.1,2.7-0.2c0.9-0.1,1.5-0.1,1.8-0.1L246.7,214.9z M307.1,214.9l-0.2,1.4l-0.4,0.3c-0.9,0-1.7,0.1-2.5,0.2
		c-0.8,0.1-1.3,0.3-1.8,0.6c-0.4,0.4-0.8,0.9-1.2,1.4c-0.3,0.6-0.5,1.6-0.6,3.1c-0.1,0.8-0.1,1.4-0.2,2.1c0,0.6,0,1.4-0.1,2.3
		c0,0.9,0,1.9,0,3.1s0,2.8,0,4.7v14.2c0,3,0,5.5,0,7.4c0.1,1.9,0.1,3.6,0.1,5c0.1,1.3,0.1,2.5,0.2,3.6c0.1,1.1,0.2,2.3,0.3,3.5
		l-0.6,0.4l-5-0.3l-0.8-1l-28.6-42.9c0,0.5,0,1.1-0.1,1.6c0,0.5,0,1.2,0,2c0,0.8,0,1.6,0,2.7s0,2.3,0,3.8V249c0,0.6,0,1.5,0,2.6
		c0,1,0,2.1,0,3.2c0.1,1.1,0.1,2.2,0.1,3.3c0.1,1,0.1,1.8,0.2,2.5c0.1,1.3,0.3,2.4,0.6,3.1c0.4,0.6,0.8,1.2,1.4,1.5
		c0.4,0.3,1,0.5,1.7,0.6c0.7,0.1,1.6,0.2,2.7,0.2l0.4,0.3l0.2,1.4l-0.2,0.3c-0.4,0-1,0-1.8-0.1c-0.8-0.1-1.6-0.1-2.4-0.2
		c-0.9-0.1-1.7-0.1-2.5-0.2c-0.8-0.1-1.3-0.1-1.7-0.1h-1.5c-0.4,0-1,0-1.8,0.1c-0.9,0.1-1.7,0.1-2.7,0.2c-0.9,0.1-1.8,0.1-2.7,0.2
		c-0.9,0.1-1.5,0.1-1.8,0.1l-0.2-0.3l0.2-1.4l0.4-0.3c1,0,1.8,0,2.4-0.1c0.7-0.1,1.3-0.3,1.8-0.7c0.4-0.3,0.8-0.7,1.1-1.3
		c0.4-0.6,0.7-1.7,0.9-3.3c0.1-0.4,0.1-0.8,0.1-1.3c0.1-0.5,0.1-1.2,0.1-1.9s0-1.7,0-2.7c0-1.1,0-2.4,0-4v-16.3c0-1.9,0-3.5,0-4.7
		c0-1.3,0-2.4,0-3.3s0-1.7-0.1-2.3c0-0.6,0-1.3-0.1-1.9c-0.1-1.1-0.3-2.1-0.7-2.8c-0.4-0.8-0.8-1.4-1.3-1.8
		c-0.5-0.4-1.1-0.6-1.8-0.6c-0.7-0.1-1.5-0.2-2.4-0.2l-0.4-0.3l-0.2-1.4l0.2-0.3c0.4,0,0.9,0,1.6,0.1c0.8,0.1,1.5,0.1,2.3,0.2
		c0.8,0.1,1.5,0.1,2.2,0.2c0.8,0.1,1.3,0.1,1.7,0.1h2.8c0.4,0,1,0,1.8-0.1c0.8-0.1,1.4-0.1,1.9-0.2l0.4,0.2c0.2,0.8,0.6,1.8,1.3,3.1
		c0.7,1.3,1.5,2.7,2.4,4.3c1,1.6,2,3.3,3.1,5.1c1.1,1.8,2.3,3.6,3.4,5.4c4.1,6.5,7.6,11.9,10.6,16c3.1,4.1,5,6.8,5.9,8
		c0-0.4,0-0.7,0-1c0.1-0.3,0.1-0.7,0.1-1.1c0-0.4,0-1,0-1.6s0-1.5,0-2.6v-16.3c0-1.9,0-3.5,0-4.7c0-1.3,0-2.4-0.1-3.3
		c0-0.9,0-1.7-0.1-2.3c0-0.6,0-1.3-0.1-1.9c-0.1-1.5-0.3-2.5-0.7-3.1c-0.4-0.6-0.8-1.1-1.2-1.4c-0.5-0.4-1.1-0.6-1.9-0.6
		c-0.8-0.1-1.6-0.2-2.4-0.2l-0.3-0.3l-0.2-1.4l0.2-0.3c0.4,0,0.9,0,1.6,0.1c0.7,0.1,1.4,0.1,2.1,0.2c0.8,0.1,1.5,0.1,2.2,0.2
		c0.7,0.1,1.2,0.1,1.6,0.1h3.8c0.4,0,0.9,0,1.6,0c0.7-0.1,1.4-0.1,2.2-0.2c0.8-0.1,1.5-0.1,2.2-0.2c0.7-0.1,1.2-0.1,1.6-0.2
		L307.1,214.9z M340.1,214.1l13.2,36.5c0.5,1.6,1,2.9,1.4,4c0.4,1.1,0.8,2,1,2.7c0.3,0.8,0.6,1.4,0.8,1.9c0.2,0.5,0.4,0.9,0.6,1.3
		c0.6,1.3,1.2,2.4,1.8,3.1c0.6,0.7,1.3,1.2,1.9,1.6c0.6,0.3,1.3,0.5,1.9,0.6c0.7,0.1,1.4,0.1,2.1,0.1l0.4,0.3l0.2,1.4l-0.2,0.3
		c-0.4,0-0.9,0-1.7-0.1c-0.8-0.1-1.5-0.1-2.3-0.2s-1.6-0.1-2.3-0.2c-0.7-0.1-1.2-0.1-1.6-0.1h-2.7c-0.4,0-1,0-1.8,0.1
		c-0.9,0.1-1.8,0.1-2.7,0.2c-0.9,0.1-1.8,0.1-2.7,0.2c-0.9,0.1-1.5,0.1-1.8,0.1l-0.2-0.3l0.2-1.4l0.3-0.3c1.6,0,2.8-0.2,3.6-0.5
		c0.9-0.4,1.3-1.3,1.3-2.9c0-1.2-0.4-2.9-1.3-5.1c-0.8-2.3-1.8-5.1-3.1-8.4l-1.4-3.9h-18l-1.4,3.9c-1.2,3.4-2.3,6.2-3.1,8.4
		c-0.8,2.2-1.2,3.9-1.2,5.1c0,1.6,0.4,2.5,1.3,2.9c0.9,0.3,2.1,0.5,3.6,0.5l0.4,0.3l0.2,1.4l-0.2,0.3c-0.4,0-1,0-1.8-0.1
		c-0.8-0.1-1.7-0.1-2.6-0.2c-0.9-0.1-1.7-0.1-2.5-0.2c-0.8-0.1-1.4-0.1-1.8-0.1h-1.5c-0.4,0-0.9,0-1.7,0.1c-0.8,0.1-1.5,0.1-2.3,0.2
		s-1.6,0.1-2.3,0.2c-0.7,0.1-1.2,0.1-1.6,0.1l-0.1-0.3l0.2-1.4l0.4-0.3c0.7,0,1.4,0,2-0.1c0.6-0.1,1.3-0.2,1.9-0.6
		c0.6-0.4,1.3-0.9,1.8-1.6c0.6-0.8,1.3-1.8,1.9-3.1c0.2-0.3,0.3-0.6,0.4-0.9c0.2-0.4,0.4-0.9,0.6-1.6c0.3-0.7,0.7-1.6,1.1-2.7
		c0.5-1.2,1.1-2.7,1.8-4.5c0.8-1.9,1.6-4.2,2.7-6.8c1.1-2.7,2.4-5.9,3.9-9.7c0.7-1.9,1.4-3.7,2.2-5.5c0.8-1.9,1.4-3.6,2.1-5.2
		c0.6-1.6,1.2-3,1.7-4.3c0.5-1.2,0.9-2.1,1.1-2.7l4.7-2.4H340.1z M328.5,241.7h15.4l-7.6-20.7L328.5,241.7z M421.4,214.9l-0.2,1.4
		l-0.4,0.3c-0.9,0-1.7,0.1-2.5,0.2c-0.8,0.1-1.3,0.3-1.8,0.6c-0.4,0.4-0.8,0.9-1.2,1.4c-0.3,0.6-0.5,1.6-0.6,3.1
		c-0.1,0.8-0.1,1.4-0.2,2.1c0,0.6,0,1.4-0.1,2.3c0,0.9,0,1.9,0,3.1s0,2.8,0,4.7v14.2c0,3,0,5.5,0,7.4c0.1,1.9,0.1,3.6,0.1,5
		c0.1,1.3,0.1,2.5,0.2,3.6c0.1,1.1,0.2,2.3,0.3,3.5l-0.6,0.4l-5-0.3l-0.8-1L380,224.2c0,0.5,0,1.1-0.1,1.6c0,0.5,0,1.2,0,2
		c0,0.8,0,1.6,0,2.7s0,2.3,0,3.8V249c0,0.6,0,1.5,0,2.6c0,1,0,2.1,0,3.2c0.1,1.1,0.1,2.2,0.1,3.3c0.1,1,0.1,1.8,0.2,2.5
		c0.1,1.3,0.3,2.4,0.6,3.1c0.4,0.6,0.8,1.2,1.4,1.5c0.4,0.3,1,0.5,1.7,0.6c0.7,0.1,1.6,0.2,2.7,0.2l0.4,0.3l0.2,1.4l-0.2,0.3
		c-0.4,0-1,0-1.8-0.1c-0.8-0.1-1.6-0.1-2.4-0.2c-0.9-0.1-1.7-0.1-2.5-0.2c-0.8-0.1-1.3-0.1-1.7-0.1h-1.5c-0.4,0-1,0-1.8,0.1
		c-0.9,0.1-1.7,0.1-2.7,0.2c-0.9,0.1-1.8,0.1-2.7,0.2c-0.9,0.1-1.5,0.1-1.8,0.1l-0.2-0.3l0.2-1.4l0.4-0.3c1,0,1.8,0,2.4-0.1
		c0.7-0.1,1.3-0.3,1.8-0.7c0.4-0.3,0.8-0.7,1.1-1.3c0.4-0.6,0.7-1.7,0.9-3.3c0.1-0.4,0.1-0.8,0.1-1.3c0.1-0.5,0.1-1.2,0.1-1.9
		s0-1.7,0-2.7c0-1.1,0-2.4,0-4v-16.3c0-1.9,0-3.5,0-4.7c0-1.3,0-2.4,0-3.3s0-1.7-0.1-2.3c0-0.6,0-1.3-0.1-1.9
		c-0.1-1.1-0.3-2.1-0.7-2.8c-0.4-0.8-0.8-1.4-1.3-1.8c-0.5-0.4-1.1-0.6-1.8-0.6c-0.7-0.1-1.5-0.2-2.4-0.2l-0.4-0.3l-0.2-1.4l0.2-0.3
		c0.4,0,0.9,0,1.6,0.1c0.8,0.1,1.5,0.1,2.3,0.2c0.8,0.1,1.5,0.1,2.2,0.2c0.8,0.1,1.3,0.1,1.7,0.1h2.8c0.4,0,1,0,1.8-0.1
		c0.8-0.1,1.4-0.1,1.9-0.2l0.4,0.2c0.2,0.8,0.6,1.8,1.3,3.1c0.7,1.3,1.5,2.7,2.4,4.3c1,1.6,2,3.3,3.1,5.1c1.1,1.8,2.3,3.6,3.4,5.4
		c4.1,6.5,7.6,11.9,10.6,16c3.1,4.1,5,6.8,5.9,8c0-0.4,0-0.7,0-1c0.1-0.3,0.1-0.7,0.1-1.1c0-0.4,0-1,0-1.6s0-1.5,0-2.6v-16.3
		c0-1.9,0-3.5,0-4.7c0-1.3,0-2.4-0.1-3.3c0-0.9,0-1.7-0.1-2.3c0-0.6,0-1.3-0.1-1.9c-0.1-1.5-0.3-2.5-0.7-3.1
		c-0.4-0.6-0.8-1.1-1.2-1.4c-0.5-0.4-1.1-0.6-1.9-0.6c-0.8-0.1-1.6-0.2-2.4-0.2l-0.3-0.3l-0.2-1.4l0.2-0.3c0.4,0,0.9,0,1.6,0.1
		c0.7,0.1,1.4,0.1,2.1,0.2c0.8,0.1,1.5,0.1,2.2,0.2c0.7,0.1,1.2,0.1,1.6,0.1h3.8c0.4,0,0.9,0,1.6,0c0.7-0.1,1.4-0.1,2.2-0.2
		c0.8-0.1,1.5-0.1,2.2-0.2c0.7-0.1,1.2-0.1,1.6-0.2L421.4,214.9z M468.3,224.6c-0.2-1.2-0.7-2.2-1.5-3c-0.9-0.8-1.9-1.4-3.2-1.9
		c-1.2-0.5-2.6-0.8-4.2-1c-1.5-0.2-3-0.3-4.5-0.3c-5.3,0-9.5,1.2-12.5,3.6c-2.5,2-4.4,4.7-5.7,8.1c-1.2,3.4-1.8,7.1-1.8,11.1
		c0,3.8,0.5,7.2,1.6,10.1c1.1,2.8,2.7,5.2,4.6,7.2c1.9,1.9,4.2,3.4,6.8,4.4c2.7,1,5.6,1.4,8.7,1.4c2.2,0,4.7-0.3,7.6-0.9
		c2.9-0.6,5.6-1.8,8.2-3.6l0.8,0.9l-1.8,3.6c-2.7,1.4-5.4,2.5-8,3.2c-2.6,0.6-5.4,1-8.2,1c-4,0-7.7-0.6-10.9-1.9
		c-3.3-1.3-6.1-3.1-8.4-5.5c-2.3-2.4-4.1-5.3-5.4-8.5c-1.3-3.3-1.9-7-1.9-11c0-3.8,0.6-7.3,1.7-10.6c1.2-3.4,2.9-6.3,5.1-8.8
		c2.3-2.5,5.1-4.4,8.4-5.9c3.4-1.4,7.3-2.2,11.7-2.2c1,0,2.1,0.1,3.4,0.2c1.3,0.1,2.7,0.2,4.2,0.4c1.4,0.2,2.9,0.5,4.4,0.9
		c1.5,0.3,2.9,0.8,4.3,1.3l0.2,0.7l-1,7.3h-2.3L468.3,224.6z M499.6,214.9l-0.2,1.4l-0.3,0.3c-0.9,0-1.7,0.1-2.5,0.2
		c-0.8,0.1-1.4,0.3-1.8,0.6c-0.4,0.4-0.8,0.9-1.2,1.4c-0.4,0.6-0.6,1.6-0.7,3.1c-0.1,0.8-0.1,1.4-0.2,2.1c0,0.6,0,1.4-0.1,2.3
		c0,0.9,0,1.9,0,3.1s0,2.8,0,4.7V249c0,1.9,0,3.5,0,4.7c0,1.2,0,2.2,0,3c0.1,0.8,0.1,1.5,0.1,2.1c0.1,0.5,0.1,1.1,0.2,1.8
		c0.1,1.5,0.3,2.5,0.7,3.1c0.4,0.6,0.8,1.1,1.2,1.4c0.5,0.4,1.1,0.6,1.8,0.7c0.8,0.1,1.6,0.1,2.5,0.1l0.3,0.3l0.2,1.4l-0.2,0.3
		c-0.4,0-1,0-1.8-0.1c-0.9-0.1-1.7-0.1-2.7-0.2c-0.9-0.1-1.8-0.1-2.7-0.2c-0.9-0.1-1.5-0.1-1.8-0.1h-1.5c-0.4,0-1,0-1.8,0.1
		c-0.9,0.1-1.7,0.1-2.7,0.2c-0.9,0.1-1.8,0.1-2.7,0.2c-0.9,0.1-1.5,0.1-1.8,0.1l-0.2-0.3l0.2-1.4l0.4-0.3c0.9,0,1.7,0,2.4-0.1
		c0.8-0.1,1.4-0.3,1.8-0.7c0.4-0.4,0.8-0.9,1.2-1.4c0.4-0.6,0.7-1.6,0.8-3.1c0-0.4,0-0.8,0-1.3c0.1-0.5,0.1-1.2,0.1-1.9
		c0.1-0.8,0.1-1.7,0.1-2.7c0-1.1,0-2.4,0-4v-16.3c0-1.9,0-3.5,0-4.7c0-1.3,0-2.4-0.1-3.3c0-0.9,0-1.7-0.1-2.3c0-0.6,0-1.3-0.1-1.9
		c-0.1-1.4-0.3-2.4-0.7-3.1c-0.4-0.6-0.8-1.2-1.2-1.5c-0.5-0.4-1.1-0.6-1.8-0.6c-0.8-0.1-1.6-0.2-2.4-0.2l-0.4-0.3l-0.2-1.4l0.2-0.3
		c0.4,0,1,0,1.8,0.1c0.9,0.1,1.7,0.1,2.7,0.2c0.9,0.1,1.8,0.1,2.7,0.2c0.9,0.1,1.5,0.1,1.8,0.1h1.5c0.4,0,1,0,1.8-0.1
		c0.9-0.1,1.7-0.1,2.7-0.2c0.9-0.1,1.8-0.1,2.7-0.2c0.9-0.1,1.5-0.1,1.8-0.1L499.6,214.9z M533,214.1l13.2,36.5c0.5,1.6,1,2.9,1.4,4
		c0.4,1.1,0.8,2,1,2.7c0.3,0.8,0.6,1.4,0.8,1.9c0.2,0.5,0.4,0.9,0.6,1.3c0.6,1.3,1.2,2.4,1.8,3.1c0.6,0.7,1.3,1.2,1.9,1.6
		c0.6,0.3,1.3,0.5,1.9,0.6c0.7,0.1,1.4,0.1,2.1,0.1l0.4,0.3l0.2,1.4l-0.2,0.3c-0.4,0-0.9,0-1.7-0.1c-0.8-0.1-1.5-0.1-2.3-0.2
		c-0.8-0.1-1.6-0.1-2.3-0.2c-0.7-0.1-1.2-0.1-1.6-0.1h-2.7c-0.4,0-1,0-1.8,0.1c-0.9,0.1-1.8,0.1-2.7,0.2c-0.9,0.1-1.8,0.1-2.7,0.2
		c-0.9,0.1-1.5,0.1-1.8,0.1l-0.2-0.3l0.2-1.4l0.3-0.3c1.6,0,2.8-0.2,3.6-0.5c0.9-0.4,1.3-1.3,1.3-2.9c0-1.2-0.4-2.9-1.3-5.1
		c-0.8-2.3-1.8-5.1-3.1-8.4l-1.4-3.9h-18l-1.4,3.9c-1.2,3.4-2.3,6.2-3.1,8.4c-0.8,2.2-1.2,3.9-1.2,5.1c0,1.6,0.4,2.5,1.3,2.9
		c0.9,0.3,2.1,0.5,3.6,0.5l0.4,0.3l0.2,1.4l-0.2,0.3c-0.4,0-1,0-1.8-0.1c-0.8-0.1-1.7-0.1-2.6-0.2c-0.9-0.1-1.7-0.1-2.5-0.2
		c-0.8-0.1-1.4-0.1-1.8-0.1h-1.5c-0.4,0-0.9,0-1.7,0.1c-0.8,0.1-1.5,0.1-2.3,0.2s-1.6,0.1-2.3,0.2c-0.7,0.1-1.2,0.1-1.6,0.1
		l-0.1-0.3l0.2-1.4l0.4-0.3c0.7,0,1.4,0,2-0.1c0.6-0.1,1.3-0.2,1.9-0.6c0.6-0.4,1.3-0.9,1.8-1.6c0.6-0.8,1.3-1.8,1.9-3.1
		c0.2-0.3,0.3-0.6,0.4-0.9c0.2-0.4,0.4-0.9,0.6-1.6c0.3-0.7,0.7-1.6,1.1-2.7c0.5-1.2,1.1-2.7,1.8-4.5c0.8-1.9,1.6-4.2,2.7-6.8
		c1.1-2.7,2.4-5.9,3.9-9.7c0.7-1.9,1.4-3.7,2.2-5.5c0.8-1.9,1.4-3.6,2.1-5.2c0.6-1.6,1.2-3,1.7-4.3c0.5-1.2,0.9-2.1,1.1-2.7l4.7-2.4
		H533z M521.4,241.7h15.4l-7.6-20.7L521.4,241.7z M567.6,222c-0.1-1.5-0.3-2.5-0.7-3.1c-0.4-0.6-0.8-1.1-1.2-1.4
		c-0.5-0.4-1.1-0.6-1.8-0.6c-0.8-0.1-1.6-0.2-2.4-0.2l-0.4-0.3l-0.2-1.4l0.2-0.3c0.4,0,1,0,1.8,0.1c0.9,0.1,1.7,0.1,2.7,0.2
		c0.9,0.1,1.8,0.1,2.7,0.2c0.9,0.1,1.5,0.1,1.8,0.1h1.5c0.4,0,1,0,1.8-0.1c0.9-0.1,1.7-0.1,2.7-0.2c0.9-0.1,1.8-0.1,2.7-0.2
		c0.9-0.1,1.5-0.1,1.8-0.1l0.2,0.3l-0.2,1.4l-0.3,0.3c-0.9,0-1.7,0.1-2.5,0.2c-0.8,0.1-1.4,0.3-1.8,0.6c-0.4,0.4-0.9,0.9-1.3,1.5
		c-0.4,0.6-0.6,1.6-0.7,3.1c-0.1,0.8-0.1,1.4-0.2,2.1c0,0.6,0,1.4,0,2.3c0,0.9,0,1.9,0,3.1s0,2.8,0,4.7V249c0,1.9,0,3.4,0,4.7
		c0,1.2,0,2.3,0,3.2c0.1,0.9,0.1,1.8,0.2,2.6c0.1,0.8,0.1,1.7,0.2,2.7c0.1,1,0.6,1.5,1.7,1.5h6.8c3.2,0,5.6-0.1,7.2-0.2
		c1.7-0.2,2.8-0.5,3.5-0.9c0.8-0.4,1.2-1.1,1.4-1.9c0.2-0.9,0.4-2.1,0.8-3.5l0.2-0.3h2.1l-1.4,10.2l-0.6,0.8c-0.3,0-0.8,0-1.5-0.1
		c-0.7,0-1.5,0-2.5-0.1c-0.9-0.1-1.9-0.1-2.9-0.2c-1,0-1.8,0-2.5,0h-16.2c-0.4,0-1,0-1.8,0.1c-0.9,0.1-1.7,0.1-2.7,0.2
		c-0.9,0.1-1.8,0.1-2.7,0.2c-0.9,0.1-1.5,0.1-1.8,0.1l-0.2-0.3l0.2-1.4l0.4-0.3c0.9,0,1.7,0,2.4-0.1c0.8-0.1,1.4-0.3,1.8-0.7
		c0.4-0.4,0.8-0.9,1.2-1.6c0.4-0.7,0.6-1.7,0.8-3c0.1-0.4,0.1-0.8,0.1-1.3c0.1-0.5,0.1-1.2,0.1-1.9s0-1.7,0-2.7c0-1.1,0-2.4,0-4
		v-16.3c0-1.9,0-3.5,0-4.7c0-1.3,0-2.4-0.1-3.3c0-0.9,0-1.7-0.1-2.3C567.7,223.3,567.7,222.7,567.6,222z"/>
	<path class="st0" d="M215.3,315.6c0-2.8,1.1-5.1,3.2-7c2.1-1.9,4.7-2.9,7.7-2.9c1.8,0,3.6,0.4,5.2,1.2c1.6,0.8,3,1.9,3.9,3.3
		l-3.2,2.1c-1.3-1.8-3.6-2.9-6-2.9c-1.9,0-3.6,0.6-5,1.8c-1.4,1.2-2.1,2.7-2.1,4.4c0,1.7,0.7,3.2,2.1,4.4c1.4,1.2,3,1.8,5,1.8
		c2.3,0,4.4-1,5.8-2.7V318h-6.6v-3.4h10.4v5.7c-2.3,3.4-5.6,5.2-9.6,5.2C220.4,325.6,215.2,321,215.3,315.6z M268.1,325.4l-6.4-7
		h-4.8v7h-3.8v-19.7h12.8c1.8,0,3.3,0.6,4.5,1.9c1.3,1.2,1.9,2.7,1.9,4.5c0,1.6-0.6,3-1.6,4.2c-1.1,1.2-2.5,1.8-4.1,2l6.5,7.1H268.1
		z M256.9,314.8h8.7c1.7,0,2.9-1.2,2.9-2.8c0-1.6-1.2-2.8-2.9-2.8h-8.7V314.8z M300,325.5c-5.8,0.1-11-4.5-10.9-9.9
		c-0.1-5.5,5.1-10.1,10.9-9.9c3,0,5.6,1,7.7,2.9c2.1,1.9,3.2,4.3,3.2,7C311,321,305.7,325.6,300,325.5z M295,319.9
		c1.4,1.2,3,1.8,5,1.8c1.9,0,3.6-0.6,5-1.8c1.4-1.2,2.1-2.7,2.1-4.4c0-1.7-0.7-3.2-2.1-4.4c-1.4-1.2-3-1.8-5-1.8
		c-1.9,0-3.6,0.6-5,1.8c-1.4,1.2-2.1,2.7-2.1,4.4C292.9,317.3,293.6,318.7,295,319.9z M328.2,315.7v-10h3.8v10
		c0,1.7,0.6,3.1,1.8,4.3c1.2,1.2,2.6,1.8,4.3,1.8s3.1-0.6,4.2-1.8c1.2-1.2,1.8-2.7,1.8-4.3v-10h3.8v10c0,2.7-1,5-2.9,7
		c-1.9,1.9-4.2,2.9-7,2.9s-5.1-1-7-2.9C329.2,320.7,328.2,318.4,328.2,315.7z M366.3,325.4v-19.7h13.3c1.8,0,3.3,0.6,4.5,1.9
		c1.3,1.2,1.9,2.7,1.9,4.5c0,1.7-0.6,3.2-1.9,4.5c-1.3,1.2-2.8,1.9-4.5,1.9h-9.5v7H366.3z M370.1,314.8h9.1c1.7,0,2.9-1.2,2.9-2.8
		c0-1.5-1.2-2.7-2.9-2.7h-9.1V314.8z"/>
	<g>
		<path class="st0" d="M526.6,26c-0.8-1-1.6-1.7-2.6-2.3c-1-0.5-1.8-0.6-2.4-0.2c-3.2,1.7-6.6,3.9-10.2,6.5
			C485,0.2,405.7-9.2,317.6,10c-27.9,6.1-53.8,14.4-76.5,24.1c0.7,1,1.3,2.2,1.9,3.5c0.3,0.6,0.5,1.3,0.7,2
			c5.8-2.6,12.4-5.2,19.2-7.3c17.4-6.3,36.2-11.8,56.2-16.1C352.6,8.8,475.8-11,509.8,31.3c-1.4,1.1-2.8,2.2-4.3,3.4
			c-5.7,4.6-11.4,9.7-17.2,15.3c-5.8,5.5-11.4,10.9-16.7,16.4c-5.4,5.4-10.2,10.2-14.5,14.6c-4.3,4.4-7.8,7.8-10.5,10.1
			c1.9-3.2,3.8-6.5,5.5-9.8c1.8-3.3,3.8-6.8,5.8-10.5c1.6-2.9,3.4-6.3,5.3-10.1c1.9-4,3.5-7.9,4.8-11.9c1.4-4.1,2.1-7.7,2.1-10.8
			c0-2.6-0.6-4.7-1.8-6.3c-1.2-1.6-3.3-2.4-6.4-2.4c-4.4,0-9.2,1.4-14.5,4.3c-5.1,2.9-10.5,6.8-15.9,11.7
			c-5.4,4.8-10.7,10.2-15.9,16.2c-5.3,5.9-10.2,11.9-15,18c1.9-3.4,4-7.2,6.3-11.3c2.4-4.2,4.9-8.9,7.6-14.2
			c0.2-0.3,0.3-0.6,0.5-0.9c6.4-12.4,18.5-35.7-2.1-40.3c-1.9-0.3-3.9-0.5-5.8-0.5c-1.7,0-3.4,0.1-5.1,0.3c-1.6,0.2-3.3,0.5-5,0.8
			c-8.8,2.3-17.1,6-24.9,11.3c-7.7,5.3-15.3,11.4-22.8,18.5c-8.8,8.3-17.5,17.3-26.2,27c-8.7,9.6-17.2,18.7-25.6,27
			c-5.5,5.6-10.7,10.7-15.8,15.4c-4.9,4.7-9,8.1-12.1,10.1c-2,1.4-3.8,2.4-5.3,3.1c-1.5,0.6-2.8,1-4,1c-1.8,0-3.1-0.7-3.9-2.3
			c-0.8-1.5-1.1-3.4-1.1-5.8c0-2.8,0.3-5.8,1-9.2c0.8-3.3,1.6-6.4,2.4-9.3c1-3,1.7-5.3,2.3-6.8c1.8-5.3,3.8-10.3,6-15.1
			c2.3-4.9,4.4-8.8,6.4-11.7c0.5-0.2,1.4-1,2.6-2.4c1.3-1.4,2.6-2.9,3.9-4.7c1.3-1.8,2.1-3.2,2.6-4.2c0.3-0.7-0.1-1.4-1.1-2.1
			c-1-0.6-2.1-1.2-3.4-1.6c-1.3-0.5-2.3-0.8-3.1-0.8c-2.7,0-4.8,1.2-6.3,3.7c-1.5,2.4-3.4,5.5-5.6,9.5c-2.3,4-5.5,8.6-9.8,13.8
			c-4.3,5.3-9.1,10.6-14.5,16.1c-5.3,5.4-10.7,10.3-16.2,15c-5.5,4.5-10.6,8.2-15.4,11.1c-4.8,2.8-8.9,4.2-12.2,4.2
			c-2.8,0-4.2-1.3-4.2-3.9c0-1.9,0.6-4.3,1.9-7.1c1.3-2.9,2.9-6,5-9.2c2-3.2,4.1-6.4,6.3-9.5c2.3-3.1,4.3-5.8,6.1-8.2
			c1.9-2.5,3.4-4.3,4.3-5.5c4.5-5.4,8.8-10.7,13-16.1c3.2-4,5.7-7.7,7.3-11l-0.1-0.1c2.5-4.7,2.9-8.4,2.3-11.4c0,0,0,0,0,0
			c0,0,0-0.1,0-0.1c-0.1-0.4-0.2-0.7-0.3-1c0,0,0-0.1,0-0.1c-0.1-0.3-0.2-0.7-0.4-1c-0.2-0.6-0.5-1.1-0.8-1.6
			c-0.1-0.1-0.1-0.2-0.2-0.4c-0.3-0.4-0.6-0.9-0.9-1.3c0,0,0,0,0-0.1c0,0,0,0,0,0c-1.3-1.5-2.6-2.6-3.6-3.1l0.1-0.1
			c-0.5-0.3-1-0.6-1.6-0.9c-5.5-2.8-13.1-4.2-23-4.2c-10.7,0-21.4,1.3-32.2,3.9c-10.7,2.6-21.1,6.1-31,10.5
			c-9.9,4.4-19.1,9.5-27.7,15.3c-8.5,5.7-15.9,11.7-22.4,18.2c-6.3,6.4-11.3,12.9-14.8,19.5c-3.5,6.5-5.3,12.8-5.3,18.8
			c0,6.1,1.6,10.3,4.7,12.7c3.2,2.4,7.1,3.5,11.6,3.5c2.1,0,4.3-0.2,6.6-0.6c2.3-0.4,4.4-1,6.4-1.8c0.8-0.3,1.1-0.7,1.1-1.1
			c0-0.6-0.6-1-1.9-1c-0.5,0-0.9,0.1-1.1,0.2c-1.6,0.4-3.3,0.8-5,1.1c-1.7,0.4-3.4,0.6-5,0.6c-2.7,0-5-0.9-7.1-2.6
			c-1.9-1.8-2.9-5.3-2.9-10.3c0-5.9,1.7-12.1,5-18.5c3.4-6.4,8.1-12.8,14.2-19c6-6.3,13-12.3,21.1-17.9c8-5.7,16.7-10.7,26.1-15
			c9.4-4.4,19.2-7.8,29.3-10.3c10.1-2.5,20.1-3.7,30.1-3.7c7.9,0,13.5,1.2,16.7,3.5c2.1,1.6,3.5,3.5,4.3,5.7
			c-52.3,25.3-84,58.2-77.8,86.5c9.2,42.5,99.9,58.8,202.4,36.4c28.9-6.3,83.7-21.3,123.3-45.4l-0.1-0.2c2.2-1.5,5.5-3.8,9.1-6.4
			c0,0,0,0,0,0c0.2-0.1,0.4-0.3,0.5-0.4c0.5-0.4,1-0.7,1.5-1.1c0.3-0.2,0.6-0.4,0.8-0.6c0.8-0.6,1.6-1.2,2.4-1.8c1.3-1,2.6-2,3.9-3
			c0,0,0,0,0,0c3.9-3,7.1-5.7,8.8-7.6l0.3,0.3c14.7-14.7,22.7-31.7,18.5-51.2c-0.2-1-0.5-2-0.8-2.9c1.5-2,3-3.8,4.5-5.6
			c1.5-1.6,2.5-3.2,3.1-4.8c0.6-1.7,1-3.2,1-4.3C527.7,27.8,527.4,26.9,526.6,26z M349.7,157.6c-36.5,8-184.3,31.6-197.7-30.3
			c-5.2-24.1,26.3-49.6,42.8-61c9.3-6.5,20.1-12.8,32-18.6c-0.4,2.1-1.1,4.4-2.1,6.9c-1.6,3.8-3.7,7.6-6.3,11.6
			c-2.6,3.9-5.3,7.7-8.2,11.6c-1.3,1.7-3.1,4-5.3,6.8c-2.3,2.8-4.7,5.8-7.2,9.2c-2.6,3.3-5,6.8-7.4,10.3c-2.3,3.4-4.1,6.7-5.6,9.8
			c-1.4,3.1-2.1,5.8-2.1,8.2c0,1.9,0.6,3.5,1.9,4.7c1.4,1.2,3.6,1.8,6.6,1.8c4.1,0,8.3-1,12.7-3.1c4.5-2,9-4.7,13.5-8
			c4.6-3.3,9.1-6.9,13.3-10.8c4.3-4,8.3-7.9,11.9-11.7c3.6-3.9,6.8-7.3,9.5-10.3c2.8-3.1,4.8-5.5,6.1-7.1c-1.6,3.9-3.2,8.3-4.7,13.3
			c-1.4,4.9-2.6,9.8-3.5,14.5c-0.9,4.6-1.3,8.4-1.3,11.3c0,5,1.2,8.7,3.5,10.9c2.4,2.4,5.2,3.5,8.5,3.5c3.6,0,7.1-1.1,10.5-3.2
			c4.7-2.9,9.5-6.7,14.5-11.4c5-4.8,10-10,15-15.6c5.3-5.9,10.7-12.1,16.4-18.5c5.7-6.4,11.6-12.8,17.7-19.1
			c6.1-6.3,12.4-12.2,19-17.7c7.2-6,14.6-11.2,22.4-15.6c7.8-4.4,15.3-7.5,22.5-9.2c2.7-0.7,5.4-1.1,8-1.1c11.9,0,10.6,8.7,7.6,18.1
			c-4,12.1-10,23.5-16,34.8c-0.9,1.6-1.8,3.3-2.6,4.9c-4,7.6-7.7,14.7-11.1,21.2c-3.4,6.4-6.3,11.8-8.5,16.2c-2.3,4.4-3.6,7.2-4,8.5
			c-0.5,1.7-1.1,3.2-1.6,4.5c-0.5,1.3-0.8,2.4-0.8,3.2c0,1.6,0.3,2.7,1,3.4c0.6,0.6,1.3,1,2.1,1c1.1,0,2.1-0.4,3.2-1.1
			c1.1-0.8,1.9-1.5,2.4-2.3c2-6.6,4.9-13.7,8.7-21.1c3.8-7.5,8.1-15,13-22.4c4.9-7.5,10.1-14.6,15.6-21.2
			c5.6-6.8,11.1-12.7,16.7-17.9c5.6-5.3,10.9-9.3,15.9-12.1c3.6-2,6.5-3.1,8.5-3.1c1.5,0,2.6,0.5,3.2,1.6c0.6,1,1,2.3,1,4
			c0,2.1-0.4,4.7-1.3,7.7c-0.9,2.9-1.9,5.9-3.2,9c-1.2,3-2.4,5.8-3.5,8.4c-1.2,2.6-2.1,4.6-2.7,6c-2,4.3-4.2,8.4-6.6,12.4
			c-2.3,3.9-4.2,7.1-5.8,9.8c-1.6,2.6-2.4,4.2-2.4,4.8c0,1.7,0.7,3.3,2.1,4.7c1.5,1.4,2.9,2.1,4.3,2.1c1.2,0,2-0.4,2.6-1.3
			c1.2-1.9,3.3-4.8,6.4-8.5c3.2-3.9,7-8.2,11.4-13c4.5-4.8,9.2-9.8,14.2-14.8c5-5.1,10-10,15-14.5c4.9-4.5,9.4-8.3,13.5-11.4
			c3.3-2.6,6.2-4.3,8.5-5.3c0.2,0.3,0.4,0.6,0.6,1c-10.6,17.6-18.7,35.1-24.4,52.4c-2,6-3.6,11.8-4.9,17.4
			C444.6,134.1,380.4,150.9,349.7,157.6z M517.6,47.5c4.4,20.2-6,37.5-23.8,52.2c1.3-4.8,2.7-9.7,4.4-14.7c3.1-9,6.8-17.6,11.1-25.7
			c2.5-4.7,5.2-9,8-13C517.4,46.6,517.5,47,517.6,47.5z"/>
		<path class="st0" d="M525.6,146.1c-0.1,0-0.2,0.1-0.3,0.2c-2.1,1.6-4.7,3.3-7.6,5c-2.9,1.8-5.8,3.3-8.8,4.5c-3,1.3-5.7,2-8.2,2.3
			c-4.2,0.2-7.2-1.9-9.2-6.3c-1.9-4.3-2.9-10-2.9-17.2c0-5.6,0.5-11.8,1.6-18.5c-3.1,2.3-6.1,4.4-8.6,6.2c-0.7,5.3-1,10.4-1,15.4
			c0,6.6,1.5,12.3,4.5,17c3,4.8,7.6,7.2,13.8,7.2c3.3,0,6.5-0.6,9.5-1.8c3-1.2,5.7-2.6,8.2-4.3c2.5-1.6,4.5-3.2,6.1-4.7
			c1.6-1.4,2.6-2.4,3.1-2.9c0.2-0.3,0.3-0.8,0.2-1.3C526,146.4,525.9,146.1,525.6,146.1z"/>
	</g>
</g>
</svg>
